<svg width="128" height="128" viewBox="0 0 128 128" fill="none" xmlns="http://www.w3.org/2000/svg">
<path d="M27.235 13.885C20.058 13.885 14.749 20.169 14.986 26.984C15.214 33.53 14.918 42.01 12.783 48.924C10.643 55.86 7.02299 60.243 1.10999 60.807V67.194C7.02299 67.757 10.643 72.141 12.783 79.077C14.918 85.991 15.213 94.471 14.986 101.017C14.748 107.832 20.058 114.115 27.235 114.115H100.775C107.952 114.115 113.261 107.831 113.024 101.017C112.796 94.471 113.092 85.991 115.226 79.077C117.366 72.142 120.977 67.758 126.89 67.194V60.807C120.977 60.244 117.367 55.86 115.226 48.924C113.092 42.01 112.796 33.53 113.024 26.984C113.261 20.169 107.952 13.885 100.774 13.885H27.235ZM85.349 75.571C85.349 84.955 78.347 90.644 66.728 90.644H45.306C45.1758 90.644 45.0509 90.5923 44.9588 90.5002C44.8667 90.4081 44.815 90.2832 44.815 90.153V37.827C44.8149 37.7624 44.8275 37.6985 44.8521 37.6388C44.8767 37.5791 44.9128 37.5249 44.9584 37.4792C45.004 37.4335 45.0582 37.3972 45.1179 37.3725C45.1775 37.3477 45.2414 37.335 45.306 37.335H66.615C76.304 37.335 82.662 42.581 82.662 50.635C82.662 56.288 78.385 61.348 72.935 62.235V62.531C80.353 63.344 85.349 68.479 85.349 75.571ZM64.571 44.096H53.293V60.018H62.793C70.135 60.018 74.184 57.063 74.184 51.78C74.184 46.83 70.703 44.096 64.571 44.096V44.096ZM53.293 66.336V83.884H64.988C72.633 83.884 76.683 80.818 76.683 75.054C76.683 69.291 72.52 66.336 64.496 66.336H53.293Z" fill="#F64778"/>
</svg>
