<svg width="128" height="128" viewBox="0 0 128 128" fill="none" xmlns="http://www.w3.org/2000/svg">
<path d="M91.086 24.929C84.734 20.973 78.742 19.415 72.75 15.46C69.033 12.943 63.881 6.95 59.564 1.797C58.726 10.067 56.209 13.423 53.334 15.819C47.221 20.614 43.385 22.051 38.112 24.928C33.677 27.205 9.58801 41.587 9.58801 72.508C9.58801 103.431 35.596 126.201 64.479 126.201C93.366 126.201 118.413 105.227 118.413 73.467C118.413 41.707 94.922 27.325 91.086 24.929ZM91.779 114.923C91.179 115.523 85.666 119.358 79.195 119.957C72.722 120.556 63.974 120.917 58.699 116.122C57.861 115.282 58.101 114.085 58.699 113.605C59.299 113.126 59.779 112.765 60.498 112.765C61.217 112.765 61.098 112.765 61.457 113.005C63.853 114.922 67.449 116.481 75.119 116.481C82.791 116.481 88.183 114.323 90.58 112.526C91.66 111.686 92.139 112.407 92.258 112.885C92.379 113.365 92.619 114.085 91.779 114.923ZM70.805 104.017C72.123 102.818 74.282 100.902 76.319 100.062C78.356 99.224 79.436 99.343 81.352 99.343C83.27 99.343 85.307 99.462 86.747 100.422C88.185 101.38 89.024 103.538 89.503 104.736C89.982 105.934 89.503 106.653 88.544 107.132C87.706 107.612 87.585 107.372 86.747 105.816C85.907 104.257 85.188 102.699 80.993 102.699C76.798 102.699 75.479 104.137 73.442 105.816C71.405 107.494 70.686 108.093 69.967 107.132C69.248 106.174 69.486 105.216 70.805 104.017V104.017ZM102.566 104.976C98.252 104.617 89.621 91.193 84.107 90.954C77.158 90.714 62.054 105.455 50.189 105.455C42.999 105.455 40.842 104.378 38.444 102.818C34.848 100.302 33.051 96.466 33.171 91.193C33.291 81.844 42.04 73.095 53.066 72.975C67.089 72.857 76.796 86.878 83.869 86.758C89.861 86.639 101.367 74.894 107 74.894C112.992 74.894 114.672 81.126 114.672 84.841C114.672 88.556 113.473 95.268 110.596 99.462C107.719 103.657 105.922 105.216 102.566 104.976V104.976Z" fill="#F64778"/>
</svg>
