<svg width="128" height="128" viewBox="0 0 128 128" fill="none" xmlns="http://www.w3.org/2000/svg">
<path d="M102.4 101.5C97.3 106.1 103 110.8 108 107.8C109.1 106.6 108 102.6 102.4 101.5ZM28.6 108.9C32.6 112.3 38.8 108 40.6 103.2C36.7 98.1 22.3 103.4 28.6 108.9ZM104.5 96.8C104.5 99.1 121.3 100.6 121.3 96.3C118.9 89.3 106.5 89.7 104.5 96.8ZM120.1 55.7L73.4 7.89999C67.7 2.39999 58.2 2.39999 52.8 7.89999L7.69999 54C-7.50001 72.9 18.1 70.7 29 76.1C32.9 80.1 13.9 83.1 17.9 87.1C21.8 91.1 41.7 94.8 45.6 98.9L41.5 111.2C45.4 115.2 54.5 111.4 56.2 120.7C57.4 127.3 72.6 123.5 80 118.1C83.9 114.1 72.5 114.5 76.4 110.4C86.2 100.4 95.3 106.8 98.6 96.7C100.3 91.7 84.2 89.1 88.1 85C99.5 78.5 138.6 74.2 120.1 55.7V55.7ZM64.1 86.8C59.3 88.1 36.1 78.6 41.9 78.6C43.1 79.3 61.3 83 65.8 83.8C67.4 84.1 66.3 85.7 64.1 86.8ZM89.2 35.3L80.4 28.2L78.7 38.7L71.3 34.8L59.5 42.3L55.6 26.8L49.1 38H39.4C35.4 38 35 32.7 38.6 29.1C44.9 22.3 52.1 15.3 56 11.3C59.9 7.29999 66.8 7.29999 70.7 11.2L88.5 29.3C90.2 31 90.2 34.3 89.2 35.3V35.3Z" fill="#F64778"/>
</svg>
