<svg width="128" height="128" viewBox="0 0 128 128" fill="none" xmlns="http://www.w3.org/2000/svg">
<path d="M65.283 106.928C64.455 106.741 63.65 106.482 62.842 106.243L62.233 106.058C61.4447 105.816 60.6606 105.561 59.881 105.293L59.558 105.176C58.8627 104.93 58.1713 104.674 57.484 104.407L56.902 104.178C56.15 103.881 55.402 103.571 54.664 103.247L54.217 103.049C53.5841 102.763 52.9543 102.47 52.328 102.17L51.782 101.908C51.291 101.669 50.805 101.415 50.321 101.165C49.997 100.994 49.667 100.833 49.346 100.655C48.7566 100.338 48.1729 100.011 47.595 99.673L47.004 99.343C46.2362 98.8901 45.4761 98.4244 44.724 97.946L44.109 97.536C43.562 97.1855 43.0209 96.8258 42.486 96.457L41.963 96.09C41.4479 95.7255 40.9366 95.3559 40.429 94.981L39.75 94.467C39.284 94.1124 38.8226 93.7517 38.366 93.385L37.749 92.89C37.168 92.4133 36.5932 91.9289 36.025 91.437L35.837 91.278C35.2247 90.7381 34.6207 90.1891 34.025 89.631L33.515 89.14C33.074 88.72 32.64 88.297 32.213 87.863L31.703 87.354C31.161 86.7992 30.6279 86.2358 30.104 85.664L30.026 85.58C29.4742 84.9755 28.9338 84.3607 28.405 83.736L27.981 83.232C27.5854 82.7567 27.1964 82.276 26.814 81.79L26.387 81.258C25.9295 80.6665 25.4804 80.0684 25.04 79.464C12.89 62.89 8.52399 40.032 18.236 21.26L9.62499 32.181C-1.40401 48.032 -0.0310111 68.657 8.39399 85.501C8.59399 85.905 8.80499 86.302 9.01099 86.699L9.40599 87.458L9.65099 87.895L10.09 88.681C10.352 89.142 10.62 89.601 10.895 90.06L11.353 90.816C11.657 91.307 11.968 91.792 12.287 92.276L12.685 92.89C13.123 93.545 13.573 94.199 14.037 94.841L14.076 94.891L14.304 95.199C14.704 95.752 15.118 96.298 15.536 96.838L15.999 97.428C16.372 97.897 16.751 98.363 17.138 98.827L17.573 99.347C18.092 99.9594 18.6207 100.563 19.159 101.159L19.191 101.192L19.253 101.26C19.7818 101.834 20.3192 102.401 20.865 102.959L21.382 103.48C21.805 103.906 22.235 104.325 22.669 104.742L23.195 105.242C23.775 105.789 24.361 106.325 24.959 106.849L24.987 106.871L25.294 107.133C25.82 107.589 26.356 108.042 26.897 108.486L27.561 109.015C28.002 109.369 28.448 109.717 28.897 110.059L29.611 110.602C30.106 110.967 30.606 111.326 31.11 111.677L31.656 112.064L31.806 112.171C32.284 112.5 32.773 112.817 33.262 113.134L33.892 113.554C34.641 114.028 35.402 114.497 36.17 114.95L36.8 115.305C37.3661 115.632 37.9365 115.952 38.511 116.264C38.823 116.432 39.143 116.591 39.457 116.752C39.864 116.965 40.268 117.181 40.682 117.388L40.965 117.525L41.466 117.767C42.107 118.073 42.753 118.374 43.406 118.664L43.816 118.848C44.5645 119.175 45.319 119.489 46.079 119.789L46.63 120.006C47.334 120.277 48.048 120.545 48.765 120.797L49.033 120.89C49.819 121.165 50.614 121.42 51.414 121.669L51.989 121.841C52.803 122.086 53.607 122.379 54.447 122.534C107.786 132.261 123.28 90.481 123.28 90.481C110.266 107.435 87.168 111.907 65.283 106.928V106.928ZM46.069 63.697C47.264 65.41 48.589 67.448 50.174 68.824C50.7539 69.4592 51.3508 70.0788 51.964 70.682L52.436 71.147C53.0318 71.7274 53.6413 72.2935 54.264 72.845L54.338 72.909L54.356 72.927C55.0528 73.5338 55.7647 74.1229 56.491 74.694L56.975 75.072C57.7053 75.6346 58.4499 76.1785 59.208 76.703L59.273 76.752C59.609 76.984 59.952 77.2 60.293 77.424L60.775 77.743C61.319 78.092 61.871 78.432 62.431 78.758L62.665 78.894C63.148 79.172 63.638 79.446 64.128 79.712L64.649 79.983C64.988 80.16 65.327 80.341 65.673 80.513L65.828 80.583C66.53 80.929 67.239 81.263 67.964 81.578L68.436 81.772C69.0148 82.0197 69.5982 82.2564 70.186 82.482L70.936 82.757C71.469 82.955 72.004 83.135 72.544 83.316L73.271 83.549C74.038 83.787 74.796 84.088 75.595 84.221C116.778 91.044 126.285 59.335 126.285 59.335C117.715 71.678 101.117 77.568 83.406 72.97C82.623 72.7641 81.8451 72.5394 81.073 72.296L80.373 72.069C79.8255 71.8919 79.2814 71.7045 78.741 71.507L78.005 71.233C77.4158 71.0067 76.8304 70.7706 76.249 70.525L75.776 70.325C75.0518 70.0098 74.3356 69.6767 73.628 69.326C73.264 69.149 72.907 68.962 72.55 68.778L71.928 68.458C71.4692 68.2094 71.0148 67.9526 70.565 67.688L70.239 67.503C69.6823 67.1782 69.1321 66.8421 68.589 66.495L68.091 66.163C67.7324 65.9308 67.376 65.6951 67.022 65.456C66.2672 64.931 65.525 64.3882 64.796 63.828L64.295 63.433C56.543 57.313 50.398 48.947 47.476 39.462C44.414 29.626 45.075 18.584 50.379 9.62201L43.862 18.822C35.885 30.3 36.319 45.666 42.541 57.805C43.5816 59.847 44.7603 61.8156 46.069 63.697V63.697ZM89.476 49.498C89.815 49.623 90.154 49.735 90.498 49.852L90.949 49.995C91.433 50.147 91.915 50.324 92.416 50.419C115.155 54.813 121.324 38.75 122.965 36.385C117.562 44.164 108.483 46.031 97.342 43.327C96.462 43.114 95.494 42.796 94.646 42.495C93.5566 42.108 92.4882 41.6644 91.445 41.166C89.4656 40.2133 87.5857 39.0663 85.833 37.742C75.864 30.177 69.671 15.748 76.176 3.99701L72.656 8.84801C67.954 15.768 67.492 24.362 70.755 32.004C74.196 40.116 81.247 46.479 89.476 49.498V49.498Z" fill="#F64778"/>
</svg>
