<svg width="128" height="128" viewBox="0 0 128 128" fill="none" xmlns="http://www.w3.org/2000/svg">
<path d="M91.1 24.935C84.748 20.979 78.755 19.422 72.763 15.466C69.047 12.95 63.894 6.95598 59.578 1.80298C58.74 10.073 56.223 13.428 53.347 15.825C47.235 20.62 43.399 22.057 38.125 24.934C33.69 27.212 9.60101 41.595 9.60101 72.516C9.60101 103.439 35.609 126.21 64.493 126.21C93.379 126.21 118.427 105.236 118.427 73.476C118.426 41.714 94.936 27.333 91.1 24.935V24.935Z" fill="#00598E"/>
<path d="M81.365 99.3499C83.282 99.3499 85.32 99.4689 86.759 100.429C88.197 101.387 89.036 103.545 89.515 104.743C89.994 105.942 89.515 106.66 88.556 107.139C87.718 107.619 87.598 107.379 86.759 105.822C85.92 104.264 85.2 102.705 81.006 102.705C76.811 102.705 75.492 104.144 73.455 105.822C71.417 107.5 70.698 108.099 69.979 107.139C69.26 106.181 69.5 105.222 70.818 104.023C72.136 102.824 74.294 100.907 76.331 100.068C78.369 99.2299 79.448 99.3499 81.365 99.3499V99.3499ZM61.47 113.013C63.867 114.93 67.462 116.488 75.133 116.488C82.804 116.488 88.196 114.331 90.594 112.534C91.673 111.694 92.152 112.414 92.272 112.893C92.392 113.372 92.632 114.092 91.793 114.93C91.194 115.53 85.681 119.365 79.209 119.964C72.736 120.563 63.988 120.923 58.714 116.129C57.875 115.29 58.115 114.092 58.714 113.613C59.314 113.134 59.793 112.773 60.512 112.773C61.231 112.773 61.11 112.772 61.47 113.013V113.013Z" fill="white"/>
<path d="M32.106 103.903C41.214 103.784 42.892 102.225 50.922 98.63C94.309 79.214 102.338 61.477 103.897 57.401C105.455 53.325 107.732 46.734 105.335 39.422C104.955 38.2797 104.607 37.1273 104.29 35.966C98.525 29.519 92.801 26.001 91.072 24.921C84.84 20.966 78.727 19.408 72.734 15.453C69.019 13.056 63.866 6.94304 59.551 1.79004C58.711 10.059 56.315 13.536 53.318 15.812C47.206 20.607 43.371 22.045 38.097 24.921C33.664 27.318 9.57397 41.581 9.57397 72.502C9.57397 82.375 12.225 91.417 16.775 99.151L17.963 99.109C20.48 101.387 24.436 104.023 32.106 103.903V103.903Z" fill="#0073BA"/>
<path d="M91.073 24.922C84.841 20.967 78.728 19.409 72.735 15.454C69.02 13.057 63.867 6.94402 59.552 1.79102C58.712 10.06 56.316 13.537 53.319 15.813C47.207 20.608 43.372 22.046 38.098 24.922C33.664 27.318 9.57397 41.581 9.57397 72.502C9.57397 82.375 12.225 91.417 16.775 99.151C26.475 115.643 44.803 126.195 64.465 126.195C93.35 126.195 118.399 105.221 118.399 73.46C118.399 56.019 111.315 43.819 104.291 35.966C98.526 29.52 92.802 26.002 91.073 24.922V24.922ZM105.642 38.952C113.51 48.79 117.501 60.4 117.501 73.461C117.501 81.041 116.057 88.2 113.21 94.742C110.524 100.927 106.589 106.49 101.651 111.082C91.828 120.25 78.622 125.298 64.465 125.298C57.462 125.298 50.59 123.96 44.038 121.321C37.6518 118.761 31.8056 115.019 26.806 110.292C16.273 100.337 10.472 86.917 10.472 72.503C10.472 59.666 14.639 48.259 22.858 38.598C29.136 31.219 35.907 27.129 38.526 25.713C39.7235 25.0642 40.9296 24.4315 42.144 23.815C45.76 21.959 49.176 20.206 53.874 16.52C56.379 14.617 59.048 11.601 60.184 3.94402C64.144 8.65202 68.738 13.944 72.248 16.208C75.364 18.266 78.56 19.707 81.651 21.1C84.574 22.419 87.598 23.782 90.589 25.681L90.702 25.751C99.45 31.211 104.109 37.037 105.642 38.952V38.952Z" fill="#004975"/>
<path d="M60.1508 4.18701C61.8288 9.10101 61.5888 11.618 61.5888 12.697C61.5888 13.776 60.9888 16.653 59.0708 18.09C58.2318 18.69 57.9928 19.169 57.9928 19.289C57.9928 19.768 59.0708 20.128 59.0708 21.206C59.0708 22.525 58.4718 25.162 52.1198 31.514C45.7668 37.866 36.6588 43.499 29.5878 46.974C22.5168 50.45 19.1608 50.211 18.2018 48.533C17.2428 46.855 18.5608 43.14 22.9958 38.226C27.4308 33.311 41.4528 26.24 41.4528 26.24L58.9518 14.016L59.9098 9.34101" fill="#93C5E4"/>
<path d="M60.151 4.06702C59.072 11.978 56.675 14.375 53.439 16.891C48.045 20.967 42.772 23.483 41.574 24.082C38.458 25.64 27.192 31.873 21.319 40.862C19.521 43.618 21.319 44.697 21.678 44.936C22.038 45.176 26.113 45.655 34.862 40.382C43.612 35.108 47.447 31.992 52.361 26.838C54.998 24.082 55.357 22.524 55.357 21.804C55.357 20.966 54.757 20.606 53.799 20.366C53.319 20.246 53.199 20.006 53.799 19.647C54.398 19.288 56.914 18.089 57.514 17.61C58.114 17.131 60.99 15.214 61.11 12.097C61.229 8.98102 60.99 6.82302 60.151 4.06702V4.06702ZM33.185 91.199C33.305 81.85 42.054 73.101 53.081 72.981C67.103 72.862 76.811 86.884 83.883 86.764C89.874 86.646 101.38 74.9 107.014 74.9C113.006 74.9 114.685 81.132 114.685 84.848C114.685 88.563 113.486 95.275 110.609 99.469C107.733 103.665 105.935 105.222 102.58 104.982C98.266 104.623 89.636 91.199 84.122 90.96C77.172 90.72 62.069 105.461 50.204 105.461C43.014 105.461 40.856 104.383 38.459 102.824C34.862 100.309 33.065 96.473 33.185 91.199V91.199Z" fill="white"/>
</svg>
