<svg width="128" height="128" viewBox="0 0 128 128" fill="none" xmlns="http://www.w3.org/2000/svg">
<g opacity="0.783">
<path d="M53.3692 8.58249L8.83802 54.1077C-7.96058 70.9063 19.772 69.5147 29.8114 75.8763C34.4832 78.8583 14.9014 82.7349 18.8774 86.8103C22.754 90.7863 42.3358 94.4641 46.2124 98.3407C50.089 102.317 38.3598 106.491 42.2364 110.567C46.0136 114.543 55.059 110.766 56.6494 119.811C57.8422 126.471 73.2492 123.191 80.2072 117.425C84.4814 113.748 72.7522 113.748 76.6288 109.772C86.37 99.9311 95.0178 105.299 98.4968 96.2533C100.485 91.3827 83.7856 87.9037 88.2586 84.8223C98.8944 77.3673 137.66 73.5901 119.768 55.6981L73.7462 8.58249C67.981 3.21489 58.6374 3.21489 53.3692 8.58249V8.58249ZM104.361 96.2533C104.361 98.5395 121.955 99.8317 120.961 95.7563C119.57 88.7983 106.25 89.3947 104.361 96.2533ZM29.4138 108.281C33.3898 111.76 39.4532 107.485 41.3418 102.714C37.4652 97.5455 23.1516 102.913 29.4138 108.281ZM102.175 101.024C97.2046 105.597 103.069 110.269 107.94 107.187C109.232 106.293 107.84 102.118 102.175 101.024Z" fill="black"/>
<path opacity="0.576" d="M53.3692 9.57648L8.83802 55.1017C-7.96058 71.9997 19.772 70.6081 29.8114 76.9697C34.4832 79.9517 14.9014 83.8283 18.8774 87.9037C22.754 91.8797 42.3358 95.5575 46.2124 99.4341C50.089 103.41 38.3598 107.585 42.2364 111.66C46.0136 115.636 55.059 111.859 56.6494 120.904C57.8422 127.564 73.2492 124.284 80.2072 118.519C84.4814 114.841 72.7522 114.841 76.6288 110.865C86.37 101.024 95.0178 106.392 98.4968 97.3467C100.485 92.4761 83.7856 88.9971 88.2586 85.9157C98.795 78.4607 137.66 74.6835 119.768 56.7915L73.7462 9.57648C67.981 4.20888 58.6374 4.20888 53.3692 9.57648V9.57648ZM104.361 97.3467C104.361 99.6329 121.955 100.925 120.961 96.8497C119.57 89.8917 106.25 90.3887 104.361 97.3467ZM29.4138 109.275C33.3898 112.754 39.4532 108.479 41.3418 103.708C37.4652 98.6389 23.1516 104.006 29.4138 109.275ZM102.175 102.118C97.2046 106.69 103.069 111.362 107.94 108.281C109.232 107.386 107.84 103.112 102.175 102.118Z" fill="black"/>
</g>
<path d="M53.3692 7.50101L8.83802 53.0262C-7.96058 69.8248 19.772 68.4332 29.8114 74.7948C34.4832 77.7768 14.9014 81.6534 18.8774 85.7288C22.754 89.7048 42.3358 93.3826 46.2124 97.2592C50.089 101.235 38.3598 105.41 42.2364 109.485C46.0136 113.461 55.059 109.684 56.6494 118.73C57.8422 125.389 73.2492 122.109 80.2072 116.344C84.4814 112.666 72.7522 112.666 76.6288 108.69C86.37 98.8496 95.0178 104.217 98.4968 95.1718C100.485 90.3012 83.7856 86.8222 88.2586 83.7408C98.795 76.2858 137.66 72.5086 119.768 54.6166L73.7462 7.50101C67.981 2.13341 58.6374 2.13341 53.3692 7.50101ZM104.361 95.1718C104.361 97.458 121.955 98.7502 120.961 94.6748C119.57 87.8162 106.25 88.3132 104.361 95.1718ZM29.4138 107.199C33.3898 110.678 39.4532 106.404 41.3418 101.633C37.4652 96.464 23.1516 101.931 29.4138 107.199ZM102.175 99.943C97.2046 104.515 103.069 109.187 107.94 106.106C109.232 105.211 107.84 101.036 102.175 99.943Z" fill="black"/>
<path d="M53.5923 8.5134L9.9544 53.2348C-6.5945 69.7838 20.593 68.4047 30.4435 74.6105C34.9748 77.5657 15.8647 81.4074 19.7064 85.3476C23.5481 89.2878 42.6582 92.834 46.4999 96.6757C50.3416 100.616 38.8165 104.753 42.5597 108.595C46.3029 112.535 55.1684 108.792 56.7445 117.657C57.9265 124.257 73.0964 120.908 79.7947 115.293L76.347 107.807C85.9021 98.1533 94.3735 103.473 97.8212 94.6071C99.6928 89.8789 83.4394 86.4312 87.7737 83.3775C98.1167 76.0881 136.238 72.3449 118.704 54.8109L73.4904 8.5134C67.9741 3.29261 58.7146 3.29261 53.5923 8.5134V8.5134ZM43.0522 77.0732C44.0373 77.0732 75.6575 81.3089 63.4428 84.5596C58.8131 85.8401 37.4374 77.0732 43.0522 77.0732ZM103.633 94.6071C103.633 96.8727 120.871 98.0548 119.985 94.1146C118.606 87.3177 105.505 87.9087 103.633 94.6071V94.6071ZM30.0495 106.428C33.9897 109.777 39.9 105.64 41.7716 100.911C38.0284 95.8877 23.9422 101.207 30.0495 106.428ZM101.564 99.3354C96.7377 103.768 102.451 108.398 107.179 105.344C108.361 104.458 106.982 100.32 101.564 99.3354Z" fill="url(#paint0_linear_1_103)"/>
<path opacity="0.505" d="M12.814 55.5112C0.687234 67.4392 21.9588 64.159 38.2604 70.5206L72.0564 11.1788C66.987 5.91062 60.4266 6.40762 55.7548 11.1788L12.814 55.5112Z" fill="url(#paint1_linear_1_103)"/>
<path d="M71.0624 10.7812L88.6562 28.6732C90.2466 30.2636 90.2466 33.6432 89.352 34.6372L80.6048 27.4804L78.915 37.9174L71.6588 34.0408L59.9296 41.4958L56.053 25.89L49.7908 39.5078L33.9862 39.309C31.0042 39.309 31.4018 36.2276 34.4832 33.0468C40.646 26.2876 52.574 14.6578 56.3512 10.6818C60.3272 6.70582 67.0864 6.90462 71.0624 10.7812V10.7812Z" fill="url(#paint2_linear_1_103)"/>
<path opacity="0.217" d="M46.9082 95.3706C46.9082 95.3706 48.7968 98.2532 48.598 99.6448C48.2004 102.329 42.4352 103.72 43.7274 106.106C45.0196 108.491 49.592 107.1 53.3692 109.585C57.1464 112.07 56.1524 117.04 58.9356 118.332C64.3032 120.817 78.6168 114.058 77.8216 114.257C77.1258 114.356 63.8062 117.139 60.8242 114.754C57.4446 111.97 56.4506 110.082 53.8662 108.392C51.4806 106.901 48.2004 106.205 47.4052 105.012C46.61 103.72 48.9956 102.13 49.095 99.7442C49.2938 98.1538 46.9082 95.3706 46.9082 95.3706V95.3706Z" fill="url(#paint3_radial_1_103)"/>
<g opacity="0.276">
<path d="M46.9082 95.3706C46.9082 95.3706 48.7968 98.2532 48.598 99.6448C48.2004 102.329 42.4352 103.72 43.7274 106.106C45.0196 108.491 49.592 107.1 53.3692 109.585C57.1464 112.07 56.1524 117.04 58.9356 118.332C64.3032 120.817 78.6168 114.058 77.8216 114.257C54.1644 114.356 58.6374 108.293 49.4926 104.217C48.2004 103.621 48.8962 102.03 49.095 99.6448C49.2938 98.1538 46.9082 95.3706 46.9082 95.3706V95.3706Z" fill="url(#paint4_radial_1_103)"/>
</g>
<path opacity="0.453" d="M87.0658 82.9456C108.238 75.1924 115.097 74.099 122.055 67.0416C113.904 73.9002 96.807 77.578 82.891 83.6414L87.0658 82.9456V82.9456Z" fill="url(#paint5_radial_1_103)"/>
<g opacity="0.512">
<path d="M87.0658 81.9516C121.955 69.626 116.091 69.626 122.055 66.0476C110.922 70.3218 90.2466 70.7194 82.891 82.6474L87.0658 81.9516Z" fill="url(#paint6_radial_1_103)"/>
</g>
<path opacity="0.286" d="M117.482 91.7922C117.482 92.5874 115.494 93.1838 112.91 93.1838C110.425 93.1838 108.337 92.5874 108.337 91.7922C108.337 90.997 110.325 90.4006 112.91 90.4006C115.494 90.4006 117.482 90.997 117.482 91.7922Z" fill="url(#paint7_linear_1_103)"/>
<g opacity="0.621">
<path d="M119.073 93.3826C119.073 95.0724 116.289 96.3646 113.009 96.3646C109.63 96.3646 106.946 94.973 106.946 93.3826C106.946 91.6928 109.729 90.4006 113.009 90.4006C116.389 90.4006 119.073 91.7922 119.073 93.3826Z" fill="url(#paint8_linear_1_103)"/>
</g>
<path d="M104.66 95.0724C106.846 97.0604 118.774 98.0544 120.762 94.476C116.886 97.2592 108.337 96.2652 104.66 95.0724Z" fill="url(#paint9_radial_1_103)"/>
<path opacity="0.286" d="M104.66 101.732C105.057 102.627 104.858 103.621 104.063 104.018C103.268 104.416 102.274 104.018 101.876 103.223C101.479 102.329 101.678 101.335 102.473 100.937C103.268 100.44 104.262 100.838 104.66 101.732Z" fill="url(#paint10_linear_1_103)"/>
<g opacity="0.621">
<path d="M105.554 102.13C106.25 103.422 105.852 104.913 104.66 105.509C103.467 106.106 102.075 105.509 101.379 104.217C100.684 102.925 101.081 101.434 102.274 100.838C103.467 100.241 104.858 100.838 105.554 102.13Z" fill="url(#paint11_linear_1_103)"/>
</g>
<path d="M101.678 105.708C103.367 107.1 109.928 107.199 107.443 103.323C108.139 106.404 103.666 106.106 101.678 105.708Z" fill="url(#paint12_radial_1_103)"/>
<path d="M21.263 85.3312C21.263 85.033 43.5286 92.0904 47.3058 95.967C44.2244 92.8856 28.3204 85.9276 25.9348 85.8282C23.5492 85.7288 21.5612 85.53 21.263 85.3312V85.3312Z" fill="url(#paint13_radial_1_103)"/>
<path opacity="0.286" d="M37.9942 100.62C38.1803 101.173 36.5724 101.972 34.3007 102.471C32.029 102.97 30.142 102.938 29.9559 102.385C29.7699 101.831 31.3778 101.032 33.6495 100.534C35.9211 100.035 37.8081 100.066 37.9942 100.62Z" fill="url(#paint14_linear_1_103)"/>
<g opacity="0.621">
<path d="M39.7643 101.42C40.1598 102.596 38.0157 104.032 35.1324 104.665C32.2491 105.298 29.477 104.867 29.1049 103.76C28.7095 102.584 30.8535 101.148 33.7368 100.514C36.6201 99.8814 39.3689 100.244 39.7643 101.42Z" fill="url(#paint15_linear_1_103)"/>
</g>
<g opacity="0.616">
<path d="M28.4198 104.217C28.4198 104.217 29.6126 107.398 32.8928 107.597C36.2724 107.796 40.0496 103.621 40.3478 102.13C39.7514 103.422 36.5706 107.299 32.4952 107.199C30.1096 107.199 28.4198 104.217 28.4198 104.217V104.217Z" fill="url(#paint16_radial_1_103)"/>
</g>
<path d="M63.4086 5.01602C60.029 5.01602 56.7488 6.20882 54.4626 8.59442L10.0308 54.1196C5.9554 58.195 4.9614 60.8788 5.2596 62.3698C5.359 63.165 5.7566 63.7614 6.5518 64.4572C7.347 65.153 8.5398 65.8488 9.9314 66.4452C12.814 67.638 16.5912 68.632 20.3684 69.626C24.1456 70.62 27.8234 71.7134 30.6066 73.5026C31.0042 73.8008 31.4018 74.099 31.7 74.596C31.9982 75.093 32.0976 75.6894 31.9982 76.2858C31.7994 77.3792 31.1036 77.9756 30.4078 78.4726C29.0162 79.566 27.1276 80.3612 25.239 81.2558C23.3504 82.1504 21.4618 83.1444 20.4678 83.8402C19.9708 84.2378 19.772 84.536 19.8714 84.536C19.8714 84.536 19.772 84.2378 19.9708 84.4366C20.5672 85.033 22.4558 86.1264 24.8414 87.021C27.227 87.9156 30.1096 88.9096 32.9922 89.8042C35.8748 90.7982 38.8568 91.6928 41.3418 92.6868C43.8268 93.6808 45.9142 94.5754 47.2064 95.967C47.9022 96.6628 48.3992 97.5574 48.4986 98.3526C48.598 99.2472 48.3992 100.042 48.0016 100.738C47.3058 102.13 46.2124 103.223 45.3178 104.217C44.3238 105.211 43.4292 106.205 43.131 106.901C42.9322 107.199 42.9322 107.398 42.9322 107.597C42.9322 107.696 42.9322 107.895 43.2304 108.193C44.5226 109.585 47.3058 109.784 50.4866 110.479C52.077 110.877 53.7668 111.374 55.1584 112.666C56.55 113.958 57.6434 115.748 58.1404 118.332C58.3392 119.425 58.9356 119.922 60.2278 120.32C61.6194 120.718 63.7068 120.817 65.993 120.519C70.5654 119.823 76.0324 117.636 79.1138 115.052L79.3126 114.853C79.1138 114.654 78.6168 114.356 77.8216 113.958C76.8276 113.461 75.7342 113.064 74.8396 111.97C74.442 111.374 74.1438 110.579 74.2432 109.684C74.3426 108.79 74.8396 108.094 75.436 107.497C80.6048 102.329 85.5748 101.036 89.352 100.042C91.2406 99.5454 92.831 99.0484 94.0238 98.3526C95.2166 97.5574 96.2106 96.5634 97.0058 94.5754C97.1052 94.3766 97.1052 94.2772 97.0058 94.0784C96.9064 93.7802 96.6082 93.3826 96.1112 92.985C95.1172 92.0904 93.4274 91.1958 91.7376 90.2018C90.0478 89.3072 88.4574 88.4126 87.2646 87.3192C86.6682 86.7228 86.0718 86.1264 85.9724 85.033C85.873 83.9396 86.5688 83.045 87.364 82.4486C90.346 80.3612 94.819 78.7708 99.6896 77.081C104.56 75.3912 109.828 73.602 114.003 71.614C118.277 69.626 121.359 67.3398 122.353 65.0536C122.85 63.8608 122.949 62.7674 122.452 61.177C121.955 59.5866 120.762 57.7974 118.576 55.71L72.6528 8.69382C70.0684 6.20882 66.6888 5.01602 63.4086 5.01602V5.01602ZM112.91 91.3946C110.027 91.494 107.443 92.7862 106.349 94.8736C106.648 94.973 106.946 95.1718 107.443 95.2712C108.934 95.5694 111.021 95.8676 113.009 95.8676C114.997 95.8676 117.085 95.7682 118.377 95.3706C118.874 95.1718 119.172 95.0724 119.371 94.973C119.073 93.7802 118.476 92.985 117.283 92.3886C116.19 91.5934 114.5 91.2952 112.91 91.3946ZM36.8688 101.136C34.5826 100.937 31.7994 101.832 30.4078 103.024C29.712 103.621 29.4138 104.118 29.4138 104.416C29.4138 104.714 29.5132 105.211 30.4078 106.006C31.8988 107.299 33.4892 107.1 35.3778 106.106C36.9682 105.211 38.3598 103.621 39.2544 101.931C38.658 101.533 37.8628 101.235 36.8688 101.136ZM102.672 101.832C102.175 102.428 101.976 103.024 101.876 103.422C101.876 104.018 101.976 104.416 102.373 104.814C103.169 105.609 104.858 105.907 106.648 104.913C106.648 104.714 106.548 104.416 106.25 104.018C105.852 103.223 104.56 102.329 102.672 101.832V101.832Z" stroke="url(#paint17_radial_1_103)" stroke-width="0.485072"/>
<g opacity="0.325">
<path d="M38.9562 76.2858C36.2724 77.081 27.6246 80.3612 28.8174 82.8462C30.0102 85.2318 50.1884 86.2258 53.2698 93.3826C54.6614 96.464 50.1884 98.8496 51.2818 102.03C52.1764 104.515 58.8362 110.678 63.1104 113.66C66.49 115.946 70.8636 111.772 69.0744 108.392C66.2912 102.925 78.915 96.2652 84.5808 93.1838C87.861 91.3946 77.7222 82.6474 77.7222 82.6474L38.9562 76.2858V76.2858Z" fill="url(#paint18_linear_1_103)"/>
</g>
<path d="M39.9502 78.7708C42.3358 80.56 47.107 79.4666 49.9896 80.7588C56.8482 83.8402 65.2972 87.3192 63.7068 81.1564L62.017 82.6474V79.8642L57.9416 80.8582C57.9416 80.8582 54.7608 78.3732 53.3692 77.4786C53.071 77.2798 51.4806 78.8702 51.4806 78.8702L51.1824 77.1804C49.1944 76.9816 47.2064 76.8822 45.4172 76.8822C41.2424 76.9816 38.4592 77.578 39.9502 78.7708V78.7708Z" fill="url(#paint19_linear_1_103)"/>
<g opacity="0.478">
<path d="M84.9784 84.3372C84.0838 87.7168 96.4094 92.3886 95.4154 94.7742C93.4274 99.943 82.2946 96.464 73.7462 107.299C72.5534 108.889 75.436 114.455 75.0384 113.76C74.6408 113.064 71.6588 108.491 72.454 106.205C74.8396 99.1478 98.298 96.464 94.0238 93.0844C91.5388 91.1958 82.6922 85.8282 84.9784 84.3372V84.3372Z" fill="url(#paint20_radial_1_103)"/>
</g>
<path opacity="0.586" d="M112.711 91.3946C112.711 91.6928 112.115 91.991 111.319 91.991C110.524 91.991 109.928 91.6928 109.928 91.3946C109.928 91.0964 110.524 90.7982 111.319 90.7982C112.115 90.7982 112.711 91.0964 112.711 91.3946ZM103.666 101.732C103.666 102.03 103.268 102.329 102.771 102.329C102.274 102.329 101.876 102.03 101.876 101.732C101.876 101.434 102.274 101.136 102.771 101.136C103.268 101.136 103.666 101.434 103.666 101.732ZM35.3778 101.235C35.3778 101.533 34.682 101.832 33.8868 101.832C33.0916 101.832 32.3958 101.533 32.3958 101.235C32.3958 100.937 33.0916 100.639 33.8868 100.639C34.682 100.639 35.3778 100.937 35.3778 101.235Z" fill="white"/>
<path opacity="0.251" d="M34.4832 76.584C26.73 81.3552 14.802 83.045 27.9228 86.2258C26.3324 82.7468 31.3024 83.1444 34.4832 76.584Z" fill="url(#paint21_linear_1_103)"/>
<g opacity="0.363">
<path d="M61.9176 120.022C61.9176 120.022 73.8456 118.928 76.5294 115.449C78.1198 113.461 70.1678 111.076 71.8576 109.088C78.3186 101.732 83.7856 102.03 91.34 98.8496C98.8944 95.7682 96.1112 94.2772 93.6262 92.8856C89.4514 90.5994 80.1078 88.1144 83.1892 82.548C86.2706 76.9816 113.407 69.2284 113.407 69.2284C121.657 66.4452 120.564 61.3758 116.588 57.1016L92.4334 33.1462C92.4334 33.1462 93.6262 56.0082 88.7556 65.8488C82.6922 77.8762 50.586 91.3946 64.005 92.8856C68.7762 93.3826 71.0624 95.0724 72.951 98.6508C76.927 106.205 61.9176 120.022 61.9176 120.022Z" fill="url(#paint22_linear_1_103)"/>
</g>
<defs>
<linearGradient id="paint0_linear_1_103" x1="102.398" y1="37.5414" x2="79.1049" y2="58.6032" gradientUnits="userSpaceOnUse">
<stop stop-color="#C0CDF9"/>
<stop offset="1" stop-color="#07092D" stop-opacity="0.288"/>
</linearGradient>
<linearGradient id="paint1_linear_1_103" x1="33.0514" y1="29.1451" x2="60.1045" y2="56.1983" gradientUnits="userSpaceOnUse">
<stop stop-color="white"/>
<stop offset="1" stop-color="white" stop-opacity="0"/>
</linearGradient>
<linearGradient id="paint2_linear_1_103" x1="51.1122" y1="24.1635" x2="83.2836" y2="56.3349" gradientUnits="userSpaceOnUse">
<stop stop-color="white"/>
<stop offset="1" stop-color="white" stop-opacity="0"/>
</linearGradient>
<radialGradient id="paint3_radial_1_103" cx="0" cy="0" r="1" gradientUnits="userSpaceOnUse" gradientTransform="translate(43.541 117.11) scale(27.3015 18.256)">
<stop stop-color="white"/>
<stop offset="1" stop-color="white" stop-opacity="0"/>
</radialGradient>
<radialGradient id="paint4_radial_1_103" cx="0" cy="0" r="1" gradientUnits="userSpaceOnUse" gradientTransform="translate(58.0528 117.764) scale(34.8284 23.307)">
<stop stop-color="white"/>
<stop offset="1" stop-color="white" stop-opacity="0"/>
</radialGradient>
<radialGradient id="paint5_radial_1_103" cx="0" cy="0" r="1" gradientUnits="userSpaceOnUse" gradientTransform="translate(102.476 75.3355) scale(19.4362 8.24006)">
<stop stop-color="white"/>
<stop offset="1" stop-color="white" stop-opacity="0"/>
</radialGradient>
<radialGradient id="paint6_radial_1_103" cx="0" cy="0" r="1" gradientUnits="userSpaceOnUse" gradientTransform="translate(106.615 77.6228) scale(19.4362 8.24006)">
<stop stop-color="white"/>
<stop offset="1" stop-color="white" stop-opacity="0"/>
</radialGradient>
<linearGradient id="paint7_linear_1_103" x1="112.958" y1="89.6492" x2="113.029" y2="93.2312" gradientUnits="userSpaceOnUse">
<stop stop-color="white"/>
<stop offset="1" stop-color="white" stop-opacity="0"/>
</linearGradient>
<linearGradient id="paint8_linear_1_103" x1="113.007" y1="89.1743" x2="113.007" y2="94.6187" gradientUnits="userSpaceOnUse">
<stop stop-color="white"/>
<stop offset="1" stop-color="white" stop-opacity="0"/>
</linearGradient>
<radialGradient id="paint9_radial_1_103" cx="0" cy="0" r="1" gradientUnits="userSpaceOnUse" gradientTransform="translate(112.735 95.7014) scale(7.99794 1.18601)">
<stop stop-color="white"/>
<stop offset="1" stop-color="white" stop-opacity="0"/>
</radialGradient>
<linearGradient id="paint10_linear_1_103" x1="102.296" y1="100.727" x2="104.059" y2="103.843" gradientUnits="userSpaceOnUse">
<stop stop-color="white"/>
<stop offset="1" stop-color="white" stop-opacity="0"/>
</linearGradient>
<linearGradient id="paint11_linear_1_103" x1="101.622" y1="99.5979" x2="104.091" y2="104.448" gradientUnits="userSpaceOnUse">
<stop stop-color="white"/>
<stop offset="1" stop-color="white" stop-opacity="0"/>
</linearGradient>
<radialGradient id="paint12_radial_1_103" cx="0" cy="0" r="1" gradientTransform="matrix(3.08666 -1.56614 -0.532182 -1.04916 105.24 106.668)" gradientUnits="userSpaceOnUse">
<stop stop-color="white"/>
<stop offset="1" stop-color="white" stop-opacity="0"/>
</radialGradient>
<radialGradient id="paint13_radial_1_103" cx="0" cy="0" r="1" gradientUnits="userSpaceOnUse" gradientTransform="translate(33.7483 88.9333) scale(12.9101 5.25238)">
<stop stop-color="white" stop-opacity="0.33"/>
<stop offset="1" stop-color="white" stop-opacity="0"/>
</radialGradient>
<linearGradient id="paint14_linear_1_103" x1="33.4206" y1="99.9984" x2="33.5249" y2="101.882" gradientUnits="userSpaceOnUse">
<stop stop-color="white"/>
<stop offset="1" stop-color="white" stop-opacity="0"/>
</linearGradient>
<linearGradient id="paint15_linear_1_103" x1="33.4428" y1="99.6622" x2="33.2939" y2="102.434" gradientUnits="userSpaceOnUse">
<stop stop-color="white"/>
<stop offset="1" stop-color="white" stop-opacity="0"/>
</linearGradient>
<radialGradient id="paint16_radial_1_103" cx="0" cy="0" r="1" gradientTransform="matrix(7.04797 -1.954 -0.734163 -2.63169 33.8835 107.543)" gradientUnits="userSpaceOnUse">
<stop stop-color="white"/>
<stop offset="1" stop-color="white" stop-opacity="0"/>
</radialGradient>
<radialGradient id="paint17_radial_1_103" cx="0" cy="0" r="1" gradientUnits="userSpaceOnUse" gradientTransform="translate(68.8039 17.5986) scale(101.125 99.5303)">
<stop stop-color="white"/>
<stop offset="1" stop-color="white" stop-opacity="0"/>
</radialGradient>
<linearGradient id="paint18_linear_1_103" x1="40.4058" y1="90.3738" x2="70.7544" y2="98.3982" gradientUnits="userSpaceOnUse">
<stop stop-color="white"/>
<stop offset="1" stop-color="white" stop-opacity="0"/>
</linearGradient>
<linearGradient id="paint19_linear_1_103" x1="53.677" y1="76.114" x2="50.2656" y2="83.9305" gradientUnits="userSpaceOnUse">
<stop stop-color="#EEEEEC"/>
<stop offset="1" stop-color="#EEEEEC" stop-opacity="0"/>
</linearGradient>
<radialGradient id="paint20_radial_1_103" cx="0" cy="0" r="1" gradientUnits="userSpaceOnUse" gradientTransform="translate(84.1639 98.7172) scale(15.9006 20.2151)">
<stop stop-color="white"/>
<stop offset="1" stop-color="white" stop-opacity="0"/>
</radialGradient>
<linearGradient id="paint21_linear_1_103" x1="27.4953" y1="79.6297" x2="32.2753" y2="83.4273" gradientUnits="userSpaceOnUse">
<stop stop-color="white"/>
<stop offset="1" stop-color="white" stop-opacity="0"/>
</linearGradient>
<linearGradient id="paint22_linear_1_103" x1="93.0216" y1="96.9539" x2="78.8351" y2="58.7564" gradientUnits="userSpaceOnUse">
<stop stop-color="#729FCF"/>
<stop offset="1" stop-color="#729FCF" stop-opacity="0"/>
</linearGradient>
</defs>
</svg>
