<svg width="128" height="128" viewBox="0 0 128 128" fill="none" xmlns="http://www.w3.org/2000/svg">
<path d="M9.62502 32.1809C-1.40398 48.0319 -0.0309806 68.6569 8.39402 85.5009C8.59402 85.9049 8.80402 86.3019 9.01102 86.6989L9.40502 87.4579L9.65102 87.8949L10.09 88.6809C10.352 89.1419 10.62 89.6009 10.894 90.0599L11.353 90.8159C11.657 91.3069 11.968 91.7919 12.286 92.2759L12.684 92.8899C13.123 93.5449 13.572 94.1989 14.036 94.841L14.075 94.8909L14.303 95.1989C14.704 95.7519 15.117 96.2979 15.535 96.8379L15.999 97.4279C16.372 97.8969 16.751 98.363 17.137 98.827L17.572 99.3469C18.091 99.9594 18.6197 100.563 19.158 101.159L19.191 101.192L19.252 101.26C19.7811 101.834 20.3185 102.4 20.864 102.959L21.381 103.48C21.804 103.906 22.234 104.325 22.668 104.742L23.195 105.242C23.775 105.789 24.361 106.325 24.959 106.849L24.987 106.871L25.294 107.133C25.821 107.589 26.357 108.042 26.897 108.486L27.561 109.015C28.002 109.369 28.448 109.717 28.897 110.059L29.611 110.602C30.107 110.967 30.606 111.326 31.11 111.677L31.656 112.064L31.806 112.171C32.284 112.5 32.773 112.817 33.262 113.134L33.892 113.554C34.642 114.028 35.402 114.497 36.171 114.95L36.801 115.305C37.366 115.631 37.935 115.951 38.511 116.264C38.823 116.432 39.143 116.591 39.457 116.752C39.864 116.965 40.268 117.181 40.682 117.388L40.965 117.525L41.466 117.767C42.107 118.073 42.753 118.374 43.406 118.664L43.816 118.848C44.5645 119.175 45.319 119.489 46.079 119.789L46.63 120.006C47.334 120.277 48.048 120.545 48.765 120.797L49.033 120.89C49.82 121.165 50.614 121.42 51.414 121.669L51.989 121.841C52.803 122.086 53.608 122.379 54.447 122.534C107.786 132.261 123.28 90.4809 123.28 90.4809C110.267 107.434 87.169 111.906 65.284 106.927C64.455 106.74 63.651 106.481 62.842 106.242L62.233 106.057C61.4447 105.815 60.6606 105.56 59.881 105.292L59.558 105.175C58.8628 104.929 58.1714 104.673 57.484 104.406L56.902 104.177C56.15 103.88 55.402 103.57 54.663 103.246L54.216 103.048C53.5831 102.762 52.9534 102.469 52.327 102.169L51.781 101.907C51.29 101.668 50.804 101.414 50.32 101.164C49.996 100.993 49.666 100.832 49.345 100.654C48.7558 100.337 48.172 100.009 47.594 99.6719L47.003 99.3419C46.2354 98.8888 45.4753 98.4231 44.723 97.9449L44.108 97.535C43.5611 97.1842 43.0201 96.8245 42.485 96.4559L41.963 96.0889C41.4478 95.7247 40.9364 95.355 40.429 94.9799L39.75 94.466C39.2838 94.1116 38.8224 93.7509 38.366 93.3839L37.749 92.8889C37.1678 92.4125 36.5931 91.9281 36.025 91.4359L35.836 91.2769C35.224 90.7368 34.6199 90.1878 34.024 89.6299L33.513 89.1389C33.072 88.7189 32.638 88.2959 32.211 87.8619L31.701 87.3529C31.1591 86.7984 30.6264 86.235 30.103 85.6629L30.024 85.5789C29.4725 84.9742 28.9321 84.3594 28.403 83.7349L27.979 83.2309C27.5837 82.7554 27.1947 82.2747 26.812 81.7889L26.385 81.257C25.9275 80.6654 25.4784 80.0673 25.038 79.4629C12.888 62.8889 8.52202 40.0309 18.233 21.2589M43.862 18.8249C35.885 30.3029 36.319 45.6689 42.541 57.8079C43.5823 59.8486 44.761 61.8161 46.069 63.6969C47.264 65.4099 48.589 67.4479 50.175 68.8239C50.755 69.4592 51.3519 70.0787 51.965 70.6819L52.437 71.1469C53.0326 71.7276 53.6421 72.2937 54.265 72.8449L54.339 72.9089L54.357 72.9269C55.0538 73.5337 55.7657 74.1229 56.492 74.6939L56.977 75.0719C57.7073 75.6346 58.4519 76.1784 59.21 76.7029L59.275 76.7519C59.611 76.9839 59.953 77.2 60.294 77.424L60.777 77.7429C61.321 78.0919 61.872 78.4319 62.432 78.7579L62.667 78.8939C63.15 79.1719 63.639 79.4459 64.13 79.7119L64.651 79.9829C64.99 80.1599 65.329 80.3409 65.674 80.5129L65.829 80.5829C66.532 80.9289 67.241 81.2629 67.965 81.5779L68.437 81.7719C69.016 82.0179 69.601 82.2579 70.187 82.4819L70.937 82.757C71.47 82.955 72.005 83.1349 72.544 83.3159L73.271 83.549C74.038 83.787 74.796 84.0879 75.595 84.2209C116.778 91.0439 126.286 59.3349 126.286 59.3349C117.716 71.6779 101.118 77.5679 83.407 72.9699C82.6241 72.7641 81.8462 72.5393 81.074 72.2959L80.373 72.0689C79.8258 71.892 79.2821 71.7046 78.742 71.507L78.006 71.2329C77.4168 71.0068 76.8314 70.7708 76.25 70.5249L75.777 70.3249C75.0529 70.0098 74.3366 69.6767 73.629 69.3259C73.266 69.1489 72.909 68.9619 72.551 68.7779L71.929 68.4579C71.4702 68.2093 71.0158 67.9526 70.566 67.688L70.24 67.5029C69.683 67.1781 69.1325 66.842 68.589 66.4949L68.091 66.1629C67.7323 65.931 67.3759 65.6953 67.022 65.4559C66.2671 64.9312 65.5249 64.3883 64.796 63.8279L64.295 63.4329C56.543 57.3129 50.397 48.9469 47.476 39.4619C44.414 29.6259 45.074 18.5839 50.379 9.62195M72.657 8.84695C67.955 15.7669 67.493 24.3609 70.756 32.0029C74.197 40.1159 81.247 46.4789 89.476 49.4979C89.815 49.6229 90.155 49.7349 90.498 49.8519L90.949 49.9949C91.434 50.1469 91.915 50.3239 92.416 50.4189C115.156 54.8129 121.324 38.7499 122.965 36.3849C117.563 44.1639 108.483 46.0309 97.342 43.3269C96.462 43.1139 95.495 42.7959 94.647 42.4949C93.5576 42.1079 92.4892 41.6643 91.446 41.1659C89.4667 40.213 87.5869 39.0661 85.834 37.7419C75.865 30.1769 69.672 15.7479 76.177 3.99695" fill="#0868AC"/>
</svg>
