<svg width="128" height="128" viewBox="0 0 128 128" fill="none" xmlns="http://www.w3.org/2000/svg">
<path d="M64.026 93.694C96.386 93.694 122.62 80.399 122.62 64C122.62 47.601 96.387 34.306 64.026 34.306C31.665 34.306 5.43298 47.601 5.43298 64C5.43298 80.399 31.666 93.694 64.026 93.694Z" fill="#6181B6"/>
<path d="M75.896 73.598L78.802 58.64C79.458 55.263 78.912 52.744 77.182 51.154C75.505 49.614 72.659 48.866 68.479 48.866H63.446L64.886 41.454C64.9125 41.3161 64.9082 41.174 64.8735 41.0379C64.8388 40.9019 64.7745 40.7751 64.6852 40.6668C64.596 40.5584 64.4839 40.471 64.357 40.4109C64.23 40.3508 64.0914 40.3194 63.951 40.319H57.004C56.7828 40.319 56.5685 40.396 56.3978 40.5366C56.227 40.6773 56.1105 40.8729 56.068 41.09L52.982 56.971C52.702 55.184 52.009 53.648 50.903 52.38C48.865 50.048 45.642 48.865 41.323 48.865H27.856C27.6348 48.8647 27.4205 48.9415 27.2498 49.0822C27.0792 49.223 26.9629 49.4188 26.921 49.636L20.674 81.78C20.6474 81.9178 20.6515 82.0599 20.6861 82.196C20.7208 82.3321 20.785 82.4589 20.8744 82.5672C20.9637 82.6756 21.0759 82.7629 21.2029 82.8228C21.3299 82.8827 21.4686 82.9139 21.609 82.914H28.611C28.8323 82.9141 29.0467 82.8372 29.2175 82.6965C29.3883 82.5559 29.5048 82.3602 29.547 82.143L31.058 74.368H36.271C39.006 74.368 41.303 74.072 43.098 73.487C44.932 72.891 46.62 71.88 48.109 70.486C49.2791 69.4204 50.2776 68.1804 51.069 66.81L49.821 73.234C49.7938 73.3719 49.7975 73.5142 49.8319 73.6505C49.8664 73.7868 49.9306 73.9138 50.0201 74.0223C50.1095 74.1308 50.2219 74.2181 50.3492 74.2779C50.4765 74.3376 50.6154 74.3684 50.756 74.368H57.703C57.9242 74.3679 58.1385 74.291 58.3093 74.1503C58.48 74.0097 58.5966 73.8141 58.639 73.597L62.068 55.952H66.835C68.866 55.952 69.461 56.356 69.622 56.53C69.769 56.689 70.074 57.248 69.732 59.01L66.968 73.233C66.9408 73.3709 66.9445 73.5132 66.9789 73.6495C67.0134 73.7859 67.0776 73.9128 67.1671 74.0213C67.2565 74.1298 67.3689 74.2171 67.4962 74.2769C67.6235 74.3366 67.7624 74.3674 67.903 74.367H74.961C75.1819 74.3673 75.3961 74.2908 75.5667 74.1505C75.7373 74.0101 75.8537 73.8148 75.896 73.598ZM43.688 61.238C43.251 63.48 42.429 65.08 41.244 65.993C40.039 66.92 38.112 67.39 35.517 67.39H32.413L34.657 55.842H38.669C41.617 55.842 42.805 56.472 43.281 57C43.943 57.734 44.083 59.199 43.688 61.238ZM105.604 52.38C103.566 50.048 100.343 48.865 96.023 48.865H82.559C82.3377 48.8647 82.1232 48.9414 81.9524 49.0822C81.7816 49.2229 81.6651 49.4187 81.623 49.636L75.375 81.78C75.3484 81.9178 75.3525 82.0599 75.3871 82.196C75.4218 82.3321 75.486 82.4589 75.5754 82.5672C75.6647 82.6756 75.7769 82.7629 75.9039 82.8228C76.0309 82.8827 76.1696 82.9139 76.31 82.914H83.313C83.5341 82.9139 83.7483 82.8369 83.9189 82.6962C84.0894 82.5556 84.2058 82.36 84.248 82.143L85.76 74.368H90.972C93.707 74.368 96.005 74.072 97.799 73.487C99.634 72.891 101.321 71.88 102.81 70.486C104.051 69.345 105.074 68.065 105.847 66.68C106.637 65.2479 107.194 63.6992 107.497 62.092C108.294 57.998 107.657 54.729 105.604 52.38ZM98.342 61.238C97.905 63.48 97.083 65.08 95.898 65.993C94.694 66.92 92.767 67.39 90.171 67.39H87.067L89.312 55.842H93.324C96.272 55.842 97.46 56.472 97.936 57C98.598 57.734 98.737 59.199 98.342 61.238Z" fill="white"/>
<path d="M38.67 54.89C41.33 54.89 43.104 55.381 43.99 56.364C44.875 57.346 45.087 59.032 44.623 61.421C44.139 63.909 43.207 65.685 41.825 66.749C40.443 67.812 38.34 68.344 35.517 68.344H31.257L33.871 54.891H38.67V54.89ZM21.609 81.962H28.611L30.272 73.416H36.27C38.916 73.416 41.093 73.139 42.802 72.582C44.511 72.026 46.065 71.094 47.463 69.785C48.5972 68.7549 49.5594 67.55 50.313 66.216C51.04 64.916 51.555 63.482 51.86 61.911C52.601 58.1 52.042 55.133 50.184 53.007C48.326 50.881 45.372 49.818 41.322 49.818H27.856L21.609 81.962ZM57.003 41.271H63.95L62.289 49.817H68.478C72.372 49.817 75.058 50.497 76.537 51.854C78.016 53.213 78.458 55.415 77.867 58.457L74.961 73.416H67.903L70.666 59.193C70.98 57.575 70.865 56.471 70.319 55.882C69.773 55.295 68.611 55 66.834 55H61.281L57.703 73.416H50.756L57.003 41.271ZM93.324 54.89C95.984 54.89 97.758 55.381 98.643 56.364C99.53 57.346 99.74 59.032 99.277 61.421C98.793 63.909 97.86 65.685 96.478 66.749C95.096 67.812 92.994 68.344 90.17 68.344H85.911L88.525 54.891H93.324V54.89ZM76.264 81.962H83.266L84.927 73.416H90.924C93.57 73.416 95.747 73.139 97.456 72.582C99.166 72.026 100.72 71.094 102.117 69.785C103.252 68.7552 104.214 67.5503 104.968 66.216C105.694 64.916 106.21 63.482 106.515 61.911C107.255 58.1 106.697 55.133 104.839 53.007C102.981 50.881 100.027 49.818 95.976 49.818H82.511L76.264 81.962Z" fill="#000004"/>
</svg>
