<svg
        viewBox="0 0 150 150"
        version="1.1"
        id="svg1"
        xml:space="preserve"
        inkscape:version="1.4.2 (f4327f4, 2025-05-13)"
        sodipodi:docname="cooking.svg"
        xmlns:inkscape="http://www.inkscape.org/namespaces/inkscape"
        xmlns:sodipodi="http://sodipodi.sourceforge.net/DTD/sodipodi-0.dtd"
        xmlns="http://www.w3.org/2000/svg"
        xmlns:svg="http://www.w3.org/2000/svg"><sodipodi:namedview
     id="namedview1"
     pagecolor="#ffffff"
     bordercolor="#000000"
     borderopacity="0.25"
     inkscape:showpageshadow="2"
     inkscape:pageopacity="0.0"
     inkscape:pagecheckerboard="0"
     inkscape:deskcolor="#d1d1d1"
     inkscape:document-units="mm"
     inkscape:zoom="0.98646753"
     inkscape:cx="105.42668"
     inkscape:cy="370.51397"
     inkscape:window-width="1920"
     inkscape:window-height="1001"
     inkscape:window-x="-9"
     inkscape:window-y="-9"
     inkscape:window-maximized="1"
     inkscape:current-layer="layer1" /><defs
        id="defs1" /><path
        style="fill:#1c2841;fill-opacity:1;stroke:#1c2841;stroke-width:1.8;stroke-linecap:round;stroke-linejoin:round;stroke-dasharray:none;stroke-opacity:1;paint-order:markers stroke fill"
        d="M 49.415065,58.992846 39.552996,21.820435 44.484031,21.061814 54.725408,58.992846 Z"
        id="spoon"
        sodipodi:nodetypes="ccccc" /><path
        style="fill:none;stroke:#1c2841;stroke-width:2.043;stroke-linecap:round;stroke-linejoin:round;stroke-dasharray:none;stroke-opacity:1;paint-order:markers stroke fill"
        d="m 93.897044,72.121195 c 8.223966,11.373399 -8.19979,14.661429 0,25.078959"
        id="steam3"
        sodipodi:nodetypes="cc" /><g
        inkscape:label="Réteg 1"
        inkscape:groupmode="layer"
        id="layer1"><path
       style="fill:none;stroke:#1c2841;stroke-width:2.043;stroke-linecap:round;stroke-linejoin:round;stroke-dasharray:none;stroke-opacity:1;paint-order:markers stroke fill"
       d="m 76.540299,72.657621 c 8.22396,11.373403 -8.19977,14.661433 0,25.078963"
       id="steam2"
       sodipodi:nodetypes="cc" /><path
        style="fill:none;stroke:#1c2841;stroke-width:2.043;stroke-linecap:round;stroke-linejoin:round;stroke-dasharray:none;stroke-opacity:1;paint-order:markers stroke fill"
        d="m 59.183566,72.389404 c 8.223958,11.37341 -8.199793,14.66145 0,25.07896"
        id="steam1"
        sodipodi:nodetypes="cc" /><path
        style="fill:#f64778;fill-opacity:1;stroke:#1c2841;stroke-width:3.1;stroke-linecap:round;stroke-linejoin:round;stroke-dasharray:none;stroke-opacity:1;paint-order:markers stroke fill"
        d="m 30.147558,58.674665 c 0.04456,-2.72771 1.230761,-5.5484 5.499999,-5.49999 h 79.086213 c 5.14555,-0.44537 7.46825,1.62871 7.5862,4.55172 0.0191,4.18399 -1.92403,6.87288 -7.20689,7.01724 l -80.034488,-0.18966 c -3.317298,-0.19177 -5.095795,-3.513 -4.931034,-5.87931 z"
        id="path1"
        sodipodi:nodetypes="ccccccc" /><path
        style="fill:#f64778;stroke:#1c2841;stroke-width:4.1;stroke-linecap:round;stroke-linejoin:round;stroke-dasharray:none;stroke-opacity:1;paint-order:markers stroke fill;fill-opacity:1"
        d="m 35.806423,66.11448 -0.268213,51.22866 c 0.751984,6.64225 3.992258,11.23571 11.130837,11.66726 l 58.738633,0.26821 c 8.09431,-0.70167 10.83539,-3.85839 11.53316,-11.80137 L 116.80673,66.24859 C 89.024303,65.89096 62.78508,66.15059 35.806423,66.11448 Z"
        id="pot-body"
        sodipodi:nodetypes="ccccccc" /><path
        style="fill:none;stroke:#1c2841;stroke-width:2.1;stroke-linecap:round;stroke-linejoin:round;stroke-dasharray:none;stroke-opacity:1;paint-order:markers stroke fill"
        d="m 118.26841,74.373525 c 15.27013,-1.46727 12.30537,1.41392 12.87423,6.30302 0.0528,9.99258 -6.33164,10.01227 -13.00833,9.52155 z"
        id="pot-handle-right"
        sodipodi:nodetypes="cccc" /><path
        style="fill:none;stroke:#1c2841;stroke-width:2.1;stroke-linecap:round;stroke-linejoin:round;stroke-dasharray:none;stroke-opacity:1;paint-order:markers stroke fill"
        d="m 34.386441,74.339834 c -15.27013,-1.46727 -12.30537,1.41392 -12.87423,6.30302 -0.0528,9.99258 6.33164,10.01227 13.00833,9.52155 z"
        id="pot-handle-left"
        sodipodi:nodetypes="cccc" /></g></svg>