<svg
   width="16mm"
   height="16mm"
   viewBox="0 0 40 40"
   version="1.1"
   id="svg1"
   xml:space="preserve"
   xmlns="http://www.w3.org/2000/svg"
   xmlns:svg="http://www.w3.org/2000/svg"><defs
     id="defs1" /><g
     id="layer1"><path
       style="fill:#1c2841;fill-opacity:1;stroke:#1c2841;stroke-width:2.58408;stroke-linecap:square;stroke-linejoin:round;stroke-miterlimit:0;stroke-opacity:1;paint-order:stroke fill markers"
       d="M 26.211169,10.19159 C 23.245261,8.0430141 16.132304,7.0645101 12.822944,9.6992052 8.3148475,12.623861 7.1451385,19.179861 8.6100555,23.805689 11.925285,34.277983 21.936417,32.673833 26.347888,31.466859 l -0.110737,-6.879746 c -2.992209,-0.193221 -3.915318,-0.153653 -7.03174,-0.163601 3.157293,0.01959 4.048574,-0.0363 6.959682,0.151482 -0.03437,6.270346 0.04748,0.142412 0.06638,6.885781 C 13.255724,34.851013 10.636205,28.568929 8.6460675,23.820258 6.8570365,18.300144 8.3945615,13.222836 12.832223,9.6208122 17.28749,7.4226011 23.38268,7.9509911 26.068493,10.120246 Z"
       id="logo-g" /><path
       style="fill:#1c2841;fill-opacity:1;stroke:#1c2841;stroke-width:0.863411;stroke-linecap:square;stroke-linejoin:round;stroke-miterlimit:0;stroke-opacity:1;paint-order:stroke fill markers"
       d="m 23.032975,17.414332 c -0.300369,1.077708 -3.889069,-1.700049 -5.526572,1.211067 -0.936194,1.948749 -0.621308,3.401321 0.597003,4.451961 2.565726,1.521897 4.303214,-0.392086 4.980742,0.528777 0.484676,1.899826 -3.653246,2.136873 -5.884779,0.852867 -2.124885,-1.278923 -2.119246,-4.611749 -1.313412,-6.464726 1.548189,-3.706277 7.694976,-2.213361 7.147018,-0.579946 z"
       id="logo-c" /><path
       style="fill:#1c2841;fill-opacity:1;stroke:#1c2841;stroke-width:0.901473;stroke-linecap:square;stroke-linejoin:round;stroke-miterlimit:0;stroke-opacity:1;paint-order:stroke fill markers"
       d="m 31.99996,16.859852 c -0.539522,-1.42657 -6.540544,-2.465108 -7.212758,1.709691 -0.196725,3.909526 5.795096,2.079863 5.983917,4.452318 -0.210228,2.707198 -5.833934,-0.749364 -6.055153,1.371315 -0.355308,1.887064 7.64402,2.359264 7.907319,-1.24665 0.113641,-4.0876 -6.044286,-2.133645 -5.930488,-4.594792 -0.03919,-2.783616 6.123154,0.504768 5.307163,-1.691882 z"
       id="logo-s" /><circle
       style="fill:#1c2841;fill-opacity:0;stroke:#1c2841;stroke-width:2.09518;stroke-linecap:square;stroke-linejoin:round;stroke-miterlimit:0;stroke-dasharray:none;stroke-opacity:1;paint-order:stroke fill markers"
       id="logo-outer-circle"
       cx="20.104198"
       cy="20.143017"
       r="18.175125" /><circle
       style="fill:#1c2841;fill-opacity:0;stroke:#1c2841;stroke-width:0.436759;stroke-linecap:square;stroke-linejoin:round;stroke-miterlimit:0;stroke-dasharray:none;stroke-opacity:1;paint-order:stroke fill markers"
       id="logo-inner-circle"
       cx="20.125553"
       cy="20.091038"
       r="16.327518" /></g></svg>