<svg width="108" height="108" viewBox="0 0 108 108" fill="none" xmlns="http://www.w3.org/2000/svg">
<g id="octopus 1">
<g id="octopus">
<path id="head" d="M28.4481 21.2412C21.1562 22.0585 11.7518 23.1511 9.01518 35.2757C7.89565 48.0843 12.3189 53.7374 16.3102 58.7929C19.6689 62.1668 23.3755 64.994 29.2067 64.4826C35.7595 64.8144 39.8763 59.8682 44.3791 55.7584C48.9986 46.0962 50.6367 37.554 48.2508 31.973C44.7607 24.9234 38.665 21.9509 28.4481 21.2412Z" fill="#F64778" stroke="#F64778" stroke-width="0.264999" stroke-linecap="square" stroke-linejoin="bevel"/>
<g id="tentacle1">
<path id="path10" d="M16.2157 58.6035C16.8296 59.3489 17.5173 60.0271 19.0606 61.2587C16.6061 65.2011 13.5595 68.0657 10.2534 69.7102C8.11074 71.3556 5.73141 73.222 4.64676 75.957C3.4863 78.8783 5.50095 80.7656 6.63814 82.4052C8.32425 83.9367 9.6596 85.7751 10.3364 88.1897C10.8699 90.8572 11.5883 93.6202 10.1468 96.5346C9.02046 99.253 7.9417 101.497 6.97004 104.216C6.08468 106.043 3.56411 105.755 3.50883 103.267C3.43907 101.67 5.76663 97.491 7.11228 94.5432C7.90497 90.2952 6.5693 88.9357 5.68987 86.957C4.21409 84.9325 2.445 83.4214 1.42262 80.6035C0.335717 78.2691 0.8235 76.1447 1.61228 74.0604C3.51912 70.126 4.54689 69.6422 5.40538 68.8449C7.10768 67.2451 8.90789 65.9306 11.4743 64.5777C14.6362 61.9204 15.3917 60.2764 16.2157 58.6035Z" fill="#F7467A" stroke="#F84779" stroke-width="0.264999" stroke-linecap="square" stroke-linejoin="bevel"/>
<path id="path23" d="M18.4205 62.2305C18.9201 63.3403 19.7025 65.5326 17.0811 66.3555C16.5562 68.0761 15.7926 69.2844 14.2007 68.7143C13.7361 69.8172 13.1567 70.7499 11.6641 70.3264C10.9757 71.4573 11.2825 73.1472 8.47548 73.0882C8.60219 75.3943 7.45537 76.3043 5.9507 76.8221C6.49929 77.6309 6.30131 78.2998 5.84402 78.9201C6.94833 79.1728 9.19874 78.8828 8.41621 82.1206C9.91487 82.6045 11.0549 83.395 10.3957 85.724C12.4095 85.9699 12.6583 87.4873 11.7352 89.849C13.8415 91.2573 13.8288 92.9568 11.7944 94.9341C12.3331 96.2532 13.225 97.5415 10.2535 99.1658C11.4645 101.232 9.76465 102.844 7.63389 102.414L8.07246 101.371C9.96592 101.991 9.85165 99.6887 8.91406 99.391L9.43562 98.2412C11.4866 98.2027 11.5049 96.1862 10.6328 95.2779L10.941 93.9384C13.2928 93.371 12.2219 90.662 10.8106 90.5721L10.5973 89.3986C11.4414 88.0411 11.5996 86.9367 9.80307 86.5537L9.23411 85.5581C10.0298 83.6732 9.0039 83.3497 7.61018 83.3415L6.73303 82.4524C7.77401 80.3276 6.94902 79.7654 5.00243 80.0699C4.83268 79.7851 4.67119 79.4838 4.56385 79.0742C5.21813 78.2426 5.36674 77.4008 4.44531 76.5376C4.61451 76.1195 4.76999 75.7151 4.9076 75.3285C6.36173 76.0133 7.50937 75.8839 7.30199 72.2111L8.0369 71.4999C9.30027 72.6613 10.0925 71.9782 10.5024 69.5677C11.0862 69.3939 11.1267 69.1845 11.4626 69.0106C12.564 69.8423 13.1033 69.0803 13.4184 67.6475C13.9783 67.345 13.8998 67.2288 14.1414 67.0548C15.7182 68.6971 15.8234 66.9168 15.7772 65.5257L16.5121 64.6723C17.5296 65.5173 17.9177 65.1628 17.733 63.1669L18.4205 62.2305Z" fill="#FFE09D" stroke="#FFDD9E" stroke-width="0.264999" stroke-linecap="square" stroke-linejoin="bevel"/>
</g>
<g id="tentacle2">
<path id="path24" d="M22.4379 63.3052C21.1235 65.8463 19.3474 68.194 19.5211 71.8545C19.7836 75.3074 21.9486 77.8105 22.1362 80.7055C21.6373 85.989 18.4482 85.4439 15.9338 93.9485C15.0849 99.2941 17.0436 101.266 18.6159 103.805C21.017 107.29 23.9707 103.733 21.8009 101.827C20.1757 100.066 19.4031 98.0678 19.387 95.8595C19.8054 92.6254 21.4442 89.6964 23.6449 86.9079C25.8715 83.0672 26.12 81.7775 25.7906 79.6997C25.3106 77.6402 22.8881 72.9045 23.1084 71.1504C23.4974 68.3955 24.8405 66.4888 25.9917 64.4116C24.6783 64.2039 23.3993 63.953 22.4379 63.3052Z" fill="#F7467A" stroke="#F84779" stroke-width="0.264999" stroke-linecap="square" stroke-linejoin="bevel"/>
<path id="path25" d="M25.1058 65.9048C25.7819 67.291 26.6509 68.6812 24.3235 70.0061C25.3349 71.0604 25.1738 72.0169 24.6791 72.9457C26.219 73.6049 26.742 74.7444 26.0067 76.4781C28.2776 78.009 26.9495 79.0337 26.552 80.3423C28.2874 82.3223 27.2245 83.2348 26.0541 83.922C26.3904 85.7888 25.7137 86.7693 24.5369 87.3121C24.8081 88.9041 24.7285 90.3729 22.6877 91.1526C22.9625 92.1948 23.0252 93.7415 21.0045 95.0168C21.6118 96.0327 21.3805 96.9162 20.7912 97.7431C21.658 98.1689 22.2636 98.7687 22.0002 99.9479C23.0191 99.215 25.1893 102.12 22.5455 103.101L22.2373 102.295C23.2752 101.95 22.5031 100.053 21.3839 101.299L20.6726 100.375C21.3264 99.7218 21.2237 98.4123 19.8192 98.5492L19.5821 97.6483C20.5162 97.2622 20.9539 95.7288 19.4873 95.1828L19.7244 94.1397C22.0178 94.3477 22.3705 91.4435 20.9334 90.9393L21.5735 89.8962C23.4236 90.7399 24.5435 88.5302 23.4226 87.1936L24.0864 86.0556C25.5961 86.1559 25.5689 84.5837 25.2007 84.0643C25.3329 83.6511 25.4703 83.1789 25.6511 82.7604C26.8532 82.2383 26.7854 81.599 25.9356 80.8875L25.817 79.8444C26.3851 78.8327 26.7653 77.3504 25.0466 77.3434L24.608 76.3951C26.1942 74.5867 24.8798 74.3257 23.7071 74.0125L23.3041 72.8509C24.5654 72.0124 24.2002 71.0157 23.2093 70.5395L23.6834 68.9867C24.5112 69.6574 25.5555 67.7174 24.5369 66.9479L25.1058 65.9048Z" fill="#FFE09D" stroke="#FFDD9E" stroke-width="0.264999" stroke-linecap="square" stroke-linejoin="bevel"/>
</g>
<path id="head-shadow-left1" d="M15.8841 53.0557C16.5931 53.3167 16.9605 54.1227 17.2787 54.9048C18.003 55.505 19.1498 55.8249 18.3496 56.5643C17.47 56.8561 16.8203 56.4806 16.4669 55.9814C15.3455 53.5104 15.6584 53.3104 15.8841 53.0557Z" fill="#FEFFFB" stroke="#FCFFFD" stroke-width="0.264999" stroke-linecap="square" stroke-linejoin="bevel"/>
<path id="head-shadow-left2" d="M19.5882 58.2763C20.2073 57.7114 21.5206 58.5818 21.3316 59.1983C20.8495 59.8352 19.1534 59.1087 19.5882 58.2763Z" fill="#FEFFFB" stroke="#FCFFFD" stroke-width="0.264999" stroke-linecap="square" stroke-linejoin="bevel"/>
<path id="head-shadow-right2" d="M43.2411 49.5474C42.1574 49.6706 42.2404 51.2376 41.4868 52.0129C40.9949 52.6028 39.9905 52.8852 40.0644 53.8146C40.6234 54.5241 41.6257 53.9037 42.8144 52.7241C43.2214 52.1107 44.4155 50.617 43.2411 49.5474Z" fill="#FEFFFB" stroke="#FCFFFD" stroke-width="0.264999" stroke-linecap="square" stroke-linejoin="bevel"/>
<path id="head-shadow-right1" d="M44.6169 47.8405C43.5026 47.3214 44.2431 45.2239 45.0436 44.9482C46.0508 45.344 45.6219 47.9588 44.6169 47.8405Z" fill="#FEFFFB" stroke="#FCFFFD" stroke-width="0.264999" stroke-linecap="square" stroke-linejoin="bevel"/>
<path id="blush-right" d="M35.2764 46.3704C35.5238 43.4949 41.5052 43.6906 41.7246 46.7023C41.5091 49.6159 35.4605 49.5002 35.2764 46.3704Z" fill="#CA1759" stroke="#CA1759" stroke-width="0.264999" stroke-linecap="square" stroke-linejoin="bevel"/>
<path id="blush-left" d="M16.0264 45.8015C16.2738 42.9261 22.2552 43.1218 22.4746 46.1334C22.2591 49.0471 16.2105 48.9314 16.0264 45.8015Z" fill="#CA1759" stroke="#C91658" stroke-width="0.264999" stroke-linecap="square" stroke-linejoin="bevel"/>
<path id="eye-left" d="M19.9139 42.777C23.6638 42.777 26.7037 39.7371 26.7037 35.9871C26.7037 32.2372 23.6638 29.1973 19.9139 29.1973C16.1639 29.1973 13.124 32.2372 13.124 35.9871C13.124 39.7371 16.1639 42.777 19.9139 42.777Z" fill="#FBFFFC" stroke="#FDFFFC" stroke-width="0.245625" stroke-linecap="square" stroke-linejoin="bevel"/>
<path id="eye-right" d="M38.4207 43.1031C42.1707 43.1031 45.2106 40.0632 45.2106 36.3133C45.2106 32.5634 42.1707 29.5234 38.4207 29.5234C34.6708 29.5234 31.6309 32.5634 31.6309 36.3133C31.6309 40.0632 34.6708 43.1031 38.4207 43.1031Z" fill="#FBFFFC" stroke="#FDFFFC" stroke-width="0.245625" stroke-linecap="square" stroke-linejoin="bevel"/>
<path id="pupil-left" d="M19.8664 31.3931C18.8192 31.3932 17.8035 31.7511 16.9875 32.4075C17.4195 32.5248 17.8008 32.781 18.0726 33.1366C18.3445 33.4921 18.4918 33.9272 18.4918 34.3748C18.4918 34.6426 18.4391 34.9077 18.3366 35.155C18.2341 35.4024 18.0839 35.6272 17.8945 35.8165C17.7052 36.0058 17.4804 36.1559 17.233 36.2584C16.9856 36.3608 16.7204 36.4135 16.4527 36.4134C16.0302 36.4134 15.6181 36.2821 15.2734 36.0378C15.2868 37.2471 15.7766 38.4025 16.6365 39.253C17.4964 40.1035 18.657 40.5805 19.8664 40.5806C21.0847 40.5806 22.2531 40.0966 23.1145 39.2352C23.976 38.3737 24.4599 37.2054 24.46 35.9871C24.46 35.3838 24.3412 34.7865 24.1104 34.2291C23.8796 33.6717 23.5413 33.1653 23.1147 32.7387C22.6881 32.3121 22.1817 31.9737 21.6244 31.7428C21.0671 31.5119 20.4697 31.3931 19.8664 31.3931Z" fill="#1A2843" stroke="#192742" stroke-width="0.276064" stroke-linecap="square" stroke-linejoin="bevel"/>
<path id="pupil-right" d="M38.4973 31.6831C37.4501 31.6832 36.4344 32.0411 35.6184 32.6975C36.0503 32.8148 36.4316 33.071 36.7035 33.4266C36.9754 33.7821 37.1227 34.2173 37.1227 34.6648C37.1227 34.9326 37.0699 35.1977 36.9674 35.4451C36.8649 35.6924 36.7147 35.9172 36.5254 36.1065C36.336 36.2958 36.1112 36.446 35.8638 36.5484C35.6164 36.6508 35.3513 36.7035 35.0835 36.7035C34.661 36.7035 34.249 36.5722 33.9043 36.3278C33.9177 37.5372 34.4074 38.6925 35.2673 39.543C36.1272 40.3935 37.2878 40.8706 38.4973 40.8707C39.7156 40.8706 40.8839 40.3867 41.7454 39.5252C42.6068 38.6638 43.0908 37.4954 43.0908 36.2771C43.0909 35.6739 42.9721 35.0765 42.7413 34.5191C42.5105 33.9618 42.1721 33.4553 41.7456 33.0287C41.319 32.6021 40.8126 32.2637 40.2553 32.0328C39.6979 31.802 39.1006 31.6831 38.4973 31.6831Z" fill="#192742" stroke="#192742" stroke-width="0.276064" stroke-linecap="square" stroke-linejoin="bevel"/>
<g id="tentacle3">
<path id="path35" d="M32.4787 64.1506C31.8152 68.7555 34.663 71.1658 36.8882 73.9652C40.1909 77.2709 39.7147 81.2549 38.121 85.4394C36.8185 88.7393 34.5143 91.5384 34.802 95.6333C35.2267 99.8163 37.5048 103.011 39.7805 106.207C42.0768 109.399 45.6558 107.278 42.9572 104.215C40.9256 101.372 38.7014 98.6193 38.5003 94.9221C38.2212 93.6836 42.2126 86.5931 42.9098 82.073C43.8519 76.721 42.0595 74.2175 40.0175 71.9739C37.6165 69.7444 35.6463 67.1876 36.3667 62.5859C35.0707 63.3151 33.7747 63.924 32.4787 64.1506Z" fill="#F7467A" stroke="#F84779" stroke-width="0.264999" stroke-linecap="square" stroke-linejoin="bevel"/>
<path id="path36" d="M32.3359 65.0039C31.5105 65.4233 30.3275 66.3785 31.5773 68.1332C30.5538 70.0901 31.7485 70.7077 33.0471 71.2625C32.9112 72.2295 32.9405 73.1468 34.5644 73.5858C34.5456 74.5424 34.5432 75.4903 36.2713 75.5298C35.8369 77.0759 36.4485 78.0408 38.0256 78.4694C37.7158 79.4028 37.1091 80.366 38.073 81.172C36.7011 81.9439 36.7775 82.8804 37.3618 83.8746C36.7932 84.5817 35.7044 85.0208 36.5084 86.435C34.77 86.8258 34.3661 87.8718 35.0859 89.4694C34.3529 90.2066 33.3848 90.8171 34.3273 92.4565C32.4901 93.8073 33.7242 94.8169 34.1377 95.9177C33.3565 97.2682 32.938 98.5711 34.8489 99.5686C34.5238 100.764 34.4273 101.869 36.129 102.271C35.3854 103.724 36.2675 104.605 37.9308 105.211C38.1934 106.818 38.8034 107.799 40.4437 106.918C39.8742 106.274 38.5623 106.44 38.8657 104.845L38.3628 104.107C37.2212 103.861 36.6267 103.39 37.2229 102.431L36.5859 101.257C35.5663 101.144 35.6858 100.441 35.8483 99.7151L35.446 98.6422C33.6787 98.3339 34.4215 97.4572 34.9431 96.6306L34.7755 95.256C34.0928 94.4662 34.0187 93.7102 34.9431 93.0097L35.2784 91.8363C34.834 91.1007 35.2423 90.6988 35.8148 90.3611L36.3847 89.2548C35.4789 88.4383 36.4185 87.3302 37.29 87.3437L37.7258 86.6397C36.4481 85.599 37.8413 84.7397 38.4634 84.6951L38.7316 83.7564C37.5653 83.0471 38.0633 81.9605 39.201 81.8789L39.3686 80.806C38.2263 80.4999 38.4506 79.5105 39.268 78.2245L38.9328 77.1181C36.5377 77.5632 37.3477 76.005 37.6923 74.7377L37.0217 74.0672C35.5719 75.0169 35.3957 73.8131 36.0495 72.8938L35.5131 72.2903C34.497 72.3632 33.7844 72.1819 34.4067 70.8822L33.8032 70.044C31.8208 69.9879 32.2941 69.0993 32.898 68.1665L32.6298 67.3954C31.4043 67.1189 32.163 66.6148 32.3951 66.1214L32.3359 65.0039Z" fill="#FFE09D" stroke="#FFDD9E" stroke-width="0.264999" stroke-linecap="square" stroke-linejoin="bevel"/>
</g>
<g id="tentacle4">
<path id="path37" d="M41.1074 58.7929C42.9708 61.6235 46.1784 63.1098 49.2626 64.7196C51.9499 66.8394 53.6097 69.5463 52.7712 73.6808C51.9151 76.3482 50.7917 79.4904 51.6333 81.1722C51.8224 83.0293 55.9055 86.765 57.56 89.8963C59.0195 93.2448 58.6306 94.8828 58.1764 97.5299C57.0034 101.036 60.5171 102.259 61.5428 98.9049C61.928 96.2018 62.4101 93.3815 61.2109 89.7541C60.5744 86.4423 57.5515 83.6078 55.1419 80.6506C54.0949 78.8056 56.5133 75.4001 56.6591 71.8317C56.746 68.6601 55.8763 65.9949 53.8143 63.961C51.9634 61.205 46.9392 59.6365 45.8014 58.461C44.925 57.3442 44.5639 56.9277 43.9997 56.1377L41.1074 58.7929Z" fill="#F7467A" stroke="#F84779" stroke-width="0.264999" stroke-linecap="square" stroke-linejoin="bevel"/>
<path id="path38" d="M41.7718 59.6938C40.758 61.7441 40.7086 63.1399 43.2179 62.7994C43.3941 64.3441 44.3149 64.5484 45.7546 63.8188C46.0976 65.0651 46.989 65.0318 47.8882 64.9805C47.5737 66.6011 49.1048 66.284 49.927 66.7111C49.1647 68.3374 50.734 68.5166 51.6813 69.0818C51.273 70.1949 50.8735 71.3069 51.8235 72.2348C50.9415 72.5564 50.3212 73.0894 51.0649 74.724C49.8414 75.3213 49.2638 76.2416 50.3063 77.9719C48.96 79.5405 49.3349 80.7404 50.6382 81.7413C50.0621 83.3127 50.0604 84.7038 52.677 85.2736C52.4385 86.7079 53.1695 87.4339 54.5735 87.668C54.4554 89.0356 54.5785 90.2935 56.5175 90.7262C56.3743 91.5765 55.861 92.5326 56.9679 93.0257C55.3623 95.726 56.4892 96.6733 58.2007 97.2456L58.3429 96.2025C57.1139 95.5096 56.6163 93.908 58.4615 93.3339L58.3667 92.4094C56.7113 92.1772 57.3595 91.3691 57.9162 90.5839L57.4184 89.6357C54.7765 89.5446 55.6557 88.3531 55.9011 87.3598L55.2611 86.5538C54.4986 86.2228 52.6517 86.8168 53.8386 84.8232L53.2697 84.0645C50.8384 83.8189 51.3106 82.8474 51.8473 81.8598L51.4917 80.8404C50.1315 79.926 50.2704 79.2423 51.3731 78.7068L51.5865 77.474C50.315 77.2793 50.7897 75.2116 52.108 75.5063L52.4874 74.4869C51.2742 74.3398 51.9278 72.5346 52.9378 72.7089L53.0089 71.8318C52.4852 71.2402 51.7863 70.7362 52.7244 69.4137L52.2266 68.1098C50.2888 67.7902 50.6502 67.0356 50.9938 66.2844L50.2589 65.5257C49.6435 65.2995 48.4158 65.8297 48.7654 64.4115L47.6748 63.89C46.834 63.984 46.3363 63.8264 46.4421 63.2262L45.5175 62.6809C44.5819 63.9418 44.1488 62.7377 44.4033 61.946L43.4787 61.3533C42.9668 62.5378 41.1732 61.4965 42.4356 60.3339L41.7718 59.6938Z" fill="#FFE09D" stroke="#FFDD9E" stroke-width="0.264999" stroke-linecap="square" stroke-linejoin="bevel"/>
</g>
<path id="mouth" d="M24.7979 43.2888C25.0771 45.6252 26.2605 46.9974 28.3065 47.2241C30.914 47.4781 32.1635 45.1477 32.6685 43.7629C32.9408 43.1529 32.1344 42.1271 31.578 43.6206C31.1137 44.7672 30.0485 46.095 28.591 46.1336C27.8655 46.0125 26.4127 45.7833 25.9358 43.431C25.7897 42.2952 24.8769 42.1338 24.7979 43.2888Z" fill="#152F46" stroke="#152E45" stroke-width="0.264999" stroke-linecap="square" stroke-linejoin="bevel"/>
</g>
<g id="bubbles">
<g id="bubble1">
<path id="bubble-large" d="M75.2975 48.6566C80.9556 48.6566 85.5424 44.0699 85.5424 38.4118C85.5424 32.7538 80.9556 28.167 75.2975 28.167C69.6395 28.167 65.0527 32.7538 65.0527 38.4118C65.0527 44.0699 69.6395 48.6566 75.2975 48.6566Z" stroke="#7FD6E7" stroke-width="1.4"/>
<path id="bubble-large-shadow1" d="M72.2268 33.3341C70.3176 32.9252 70.078 34.5157 69.5694 36.51C69.1003 38.794 69.5309 40.1783 70.9629 40.561C74.3447 40.7251 72.8354 37.3194 73.1248 36.8705C73.3045 36.4867 74.2977 33.7824 72.2268 33.3341Z" fill="#7FD6E7" stroke="#7FD6E7" stroke-width="0.1"/>
<path id="bubble-large-shadow2" d="M72.276 42.2788C74.1594 40.5184 77.348 42.9837 75.9868 44.9201C74.1403 46.7652 70.7737 44.3822 72.276 42.2788Z" fill="#7FD6E7" stroke="#7FD6E7" stroke-width="0.1"/>
</g>
<g id="bubble2">
<path id="bubble-small" d="M58.0321 28.5768C60.9358 28.5768 63.2898 26.2629 63.2898 23.4085C63.2898 20.5542 60.9358 18.2402 58.0321 18.2402C55.1284 18.2402 52.7744 20.5542 52.7744 23.4085C52.7744 26.2629 55.1284 28.5768 58.0321 28.5768Z" stroke="#7FD6E7" stroke-width="1.234"/>
<path id="bubble-small-shadow1" d="M56.6811 20.6701C55.1927 20.1217 55.3892 21.8837 54.9578 22.7877C54.7133 23.9295 55.1549 24.4641 55.8363 24.6011C56.0218 24.5527 57.4144 24.8501 57.0979 22.6975C57.0959 22.0451 57.8572 21.3876 56.6811 20.6701Z" fill="#7FD6E7"/>
<path id="bubble-small-shadow2" d="M56.3094 25.4462C57.1596 24.0243 59.4292 25.3616 58.5847 26.7527C57.497 28.0349 55.713 26.4528 56.3094 25.4462Z" fill="#7FD6E7"/>
</g>
<g id="bubble3">
<path id="bubble-medium" d="M84.0356 15.5664C87.9769 15.5664 91.1718 12.3714 91.1718 8.43016C91.1718 4.48894 87.9769 1.29395 84.0356 1.29395C80.0944 1.29395 76.8994 4.48894 76.8994 8.43016C76.8994 12.3714 80.0944 15.5664 84.0356 15.5664Z" stroke="#7FD6E7" stroke-width="1.3"/>
<path id="bubble-medium-shadow1" d="M82.2038 4.73189C80.9429 4.52654 80.3838 5.82922 80.2175 7.2258C79.8304 8.70891 79.9715 9.47438 81.1675 9.75543C82.9283 9.93717 82.5542 8.28025 82.5401 7.20327C82.8645 5.92053 82.9549 4.99893 82.2038 4.73189Z" fill="#7FD6E7" stroke="#7FD6E7" stroke-width="0.1"/>
<path id="bubble-medium-shadow2" d="M81.8053 11.138C82.7475 9.81106 85.4817 10.886 84.9433 12.6832C83.9601 14.3061 81.1971 12.5849 81.8053 11.138Z" fill="#7FD6E7"/>
</g>
</g>
</g>
</svg>
