<svg
        viewBox="0 0 150 151"
        version="1.1"
        id="svg1"
        xml:space="preserve"
        xmlns="http://www.w3.org/2000/svg"
        xmlns:svg="http://www.w3.org/2000/svg"><defs
                            id="defs1" /><g
        id="layer1"><path
                            style="fill:none;stroke:#1c2841;stroke-width:2.626;stroke-linecap:round;stroke-linejoin:round;stroke-dasharray:none;stroke-dashoffset:0;stroke-opacity:1;paint-order:markers stroke fill"
                            d="M 131.29369,30.223354 104.02127,30.066241 Z"
                            id="path22" /><path
        style="fill:none;stroke:#1c2841;stroke-width:2.626;stroke-linecap:round;stroke-linejoin:round;stroke-dasharray:none;stroke-dashoffset:0;stroke-opacity:1;paint-order:markers stroke fill"
        d="M 131.27742,30.239628 131.22862,113.46419 20.237274,113.7324 19.6195,30.373733 46.355495,30.200348 19.864703,30.396741 20.426929,113.5983 131.30044,113.5197 Z"
        id="screen" /><path
        style="fill:none;stroke:#1c2841;stroke-width:1.826;stroke-linecap:round;stroke-linejoin:round;stroke-dasharray:none;stroke-dashoffset:0;stroke-opacity:1;paint-order:markers stroke fill"
        d="m 37.946064,92.062699 c 0.0016,-2.93396 1.924912,-4.48698 5.975296,-4.43365 l 63.06373,0.0474 c 3.44295,-0.15256 5.2093,1.41887 5.73683,3.70758 0.31282,2.45855 -1.75485,5.02121 -5.50255,5.12045 -2.95249,0.62922 -40.876509,0.27906 -63.495799,0.32371 -3.085813,-0.0132 -5.640775,-1.73709 -5.777507,-4.7655 z"
        id="charging-bar" /><path
        style="fill:none;stroke:#1c2841;stroke-width:1.7983;stroke-linecap:round;stroke-linejoin:round;stroke-dasharray:none;stroke-dashoffset:0;stroke-opacity:1;paint-order:markers stroke fill"
        d="m 26.172449,104.31035 98.430961,-0.18967 z"
        id="line" /><path
        style="fill:none;stroke:#1c2841;stroke-width:1.74587;stroke-linecap:round;stroke-linejoin:round;stroke-dasharray:none;stroke-dashoffset:0;stroke-opacity:1;paint-order:markers stroke fill"
        d="m 44.352678,87.868169 -2.096214,8.44461 z"
        id="charging-strip-1" /><path
        style="fill:none;stroke:#1c2841;stroke-width:1.74587;stroke-linecap:round;stroke-linejoin:round;stroke-dasharray:none;stroke-dashoffset:0;stroke-opacity:1;paint-order:markers stroke fill"
        d="m 49.825248,87.595069 -2.096214,8.44461 z"
        id="charging-strip-2" /><path
        style="fill:none;stroke:#1c2841;stroke-width:1.74587;stroke-linecap:round;stroke-linejoin:round;stroke-dasharray:none;stroke-dashoffset:0;stroke-opacity:1;paint-order:markers stroke fill"
        d="m 55.207464,87.839789 -2.096214,8.44461 z"
        id="charging-strip-3" /><path
        style="fill:none;stroke:#1c2841;stroke-width:1.74587;stroke-linecap:round;stroke-linejoin:round;stroke-dasharray:none;stroke-dashoffset:0;stroke-opacity:1;paint-order:markers stroke fill"
        d="m 60.644127,87.825259 -2.096214,8.44461 z"
        id="charging-strip-4" /><path
        style="fill:none;stroke:#1c2841;stroke-width:1.74587;stroke-linecap:round;stroke-linejoin:round;stroke-dasharray:none;stroke-dashoffset:0;stroke-opacity:1;paint-order:markers stroke fill"
        d="m 66.028254,87.669379 -2.096214,8.44461 z"
        id="charging-strip-5" /><path
        style="fill:none;stroke:#1c2841;stroke-width:1.74587;stroke-linecap:round;stroke-linejoin:round;stroke-dasharray:none;stroke-dashoffset:0;stroke-opacity:1;paint-order:markers stroke fill"
        d="m 71.376085,87.729169 -2.096214,8.44461 z"
        id="charging-strip-6" /><path
        style="fill:none;stroke:#1c2841;stroke-width:1.74587;stroke-linecap:round;stroke-linejoin:round;stroke-dasharray:none;stroke-dashoffset:0;stroke-opacity:1;paint-order:markers stroke fill"
        d="m 76.798229,87.665749 -2.096214,8.44461 z"
        id="charging-strip-7" /><path
        style="fill:none;stroke:#1c2841;stroke-width:1.74587;stroke-linecap:round;stroke-linejoin:round;stroke-dasharray:none;stroke-dashoffset:0;stroke-opacity:1;paint-order:markers stroke fill"
        d="m 82.040991,87.915809 -2.096214,8.44461 z"
        id="charging-strip-8" /><path
        style="fill:none;stroke:#1c2841;stroke-width:1.74587;stroke-linecap:round;stroke-linejoin:round;stroke-dasharray:none;stroke-dashoffset:0;stroke-opacity:1;paint-order:markers stroke fill"
        d="m 87.381561,87.602319 -2.096214,8.44461 z"
        id="charging-strip-9" /><path
        style="fill:none;stroke:#1c2841;stroke-width:1.74587;stroke-linecap:round;stroke-linejoin:round;stroke-dasharray:none;stroke-dashoffset:0;stroke-opacity:1;paint-order:markers stroke fill"
        d="m 92.419529,88.321769 -2.09621,8.44461 z"
        id="charging-strip-10" /><path
        style="fill:none;stroke:#1c2841;stroke-width:1.74587;stroke-linecap:round;stroke-linejoin:round;stroke-dasharray:none;stroke-dashoffset:0;stroke-opacity:1;paint-order:markers stroke fill"
        d="m 97.774619,87.774459 -2.09621,8.44461 z"
        id="charging-strip-11" /><path
        style="fill:none;stroke:#1c2841;stroke-width:1.74587;stroke-linecap:round;stroke-linejoin:round;stroke-dasharray:none;stroke-dashoffset:0;stroke-opacity:1;paint-order:markers stroke fill"
        d="m 102.86322,88.144109 -2.09621,8.44461 z"
        id="charging-strip-12" /><path
        style="fill:none;stroke:#1c2841;stroke-width:1.74587;stroke-linecap:round;stroke-linejoin:round;stroke-dasharray:none;stroke-dashoffset:0;stroke-opacity:1;paint-order:markers stroke fill"
        d="m 108.50658,87.576929 -2.09621,8.44461 z"
        id="charging-strip-13" /><path
        style="fill:none;stroke:#1c2841;stroke-width:1.4;stroke-linecap:round;stroke-linejoin:round;stroke-dasharray:none;stroke-dashoffset:0;stroke-opacity:1;paint-order:markers stroke fill"
        d="m 47.028732,130.68869 c -0.0949,-1.00726 0.919035,-2.68694 3.196362,-2.65995 l 48.751895,-0.36301 c 3.341361,-0.10293 4.698661,1.16542 4.836211,2.75 -0.11494,1.53588 -0.60665,2.90883 -3.982761,3.03448 L 50.38796,133.05939 c -2.114177,0.0404 -3.47808,-1.23966 -3.359228,-2.3707 z"
        id="monitor-base" /><path
        style="fill:none;stroke:#1c2841;stroke-width:1.4;stroke-linecap:round;stroke-linejoin:round;stroke-dasharray:none;stroke-dashoffset:0;stroke-opacity:1;paint-order:markers stroke fill"
        d="m 61.509523,113.74867 c 1.412104,7.03603 0.35333,10.10552 -2.279808,14.14823 2.563401,-4.1147 3.815051,-7.23775 2.279808,-14.14823 z"
        id="monitor-stand-left" /><path
        style="fill:none;stroke:#1c2841;stroke-width:1.4;stroke-linecap:round;stroke-linejoin:round;stroke-dasharray:none;stroke-dashoffset:0;stroke-opacity:1;paint-order:markers stroke fill"
        d="m 89.547999,113.64286 c -1.41211,7.03603 -0.35333,10.10552 2.27981,14.14823 -2.56341,-4.1147 -3.81505,-7.23775 -2.27981,-14.14823 z"
        id="monitor-stand-right" /><path
        style="fill:none;stroke:#1c2841;stroke-width:1.4;stroke-linecap:round;stroke-linejoin:round;stroke-dasharray:none;stroke-dashoffset:0;stroke-opacity:1;paint-order:markers stroke fill"
        d="m 51.909407,44.140679 c 0.297299,-3.00589 1.86039,-6.04055 3.163005,-8.17375 l -4.386235,-5.972506 5.900685,-5.766577 5.861406,4.363224 c 2.317345,-1.633736 4.840039,-2.993672 7.912282,-3.620876 l 0.788368,-6.39783 8.448707,-0.268213 0.543165,7.107642 c 3.022162,0.185014 6.044325,1.521839 8.592349,3.04517 l 5.60946,-4.402503 6.326011,6.682312 -4.971471,4.867107 c 2.20215,2.40586 2.97905,5.7062 3.53557,8.34715 l 7.068371,1.00103 -0.0393,8.25231 -7.100911,0.9062 c -0.65558,2.87885 -1.13612,5.61617 -3.0519,7.7389 l 3.88909,5.90069 -5.49837,5.63247 -5.90068,-3.88909 c -2.310883,1.19142 -3.312837,3.03731 -7.912284,3.08445 l -0.67053,6.83943 -8.3146,0.26821 -1.072852,-6.57121 c -2.92967,-0.65516 -5.752605,-1.57716 -8.180494,-3.48677 l -5.766577,4.02319 -5.364259,-5.36426 3.588335,-6.37482 c -1.302921,-2.632 -2.384244,-5.264 -3.437958,-7.89601 l -6.721593,-0.8832 v -8.04638 z"
        id="gear-outer" /><circle
        style="fill:none;stroke:#1c2841;stroke-width:1.35344;stroke-linecap:round;stroke-linejoin:round;stroke-dasharray:none;stroke-dashoffset:0;stroke-opacity:1;paint-order:markers stroke fill"
        id="gear-middle"
        cx="75.530174"
        cy="48.883606"
        r="14.484488" /><circle
        style="fill:none;stroke:#1c2841;stroke-width:1.78201;stroke-linecap:round;stroke-linejoin:round;stroke-dasharray:none;stroke-dashoffset:0;stroke-opacity:1;paint-order:markers stroke fill"
        id="gear-inner"
        cx="75.624992"
        cy="49.168091"
        r="6.2701998" /></g></svg>